STARTFONT 2.3
FONT -FontForge-Permanent Marker-Book-R-Normal--20-200-72-72-P-116-ISO10646-1
SIZE 20 72 72  4
FONTBOUNDINGBOX 31 29 -6 -7
COMMENT "Generated by fontforge, http://fontforge.sourceforge.net"
COMMENT "Copyright (c) 2010 by Font Diner, Inc. All rights reserved."
STARTPROPERTIES 40
FOUNDRY "FontForge"
FAMILY_NAME "Permanent Marker"
WEIGHT_NAME "Book"
SLANT "R"
SETWIDTH_NAME "Normal"
ADD_STYLE_NAME ""
PIXEL_SIZE 20
POINT_SIZE 200
RESOLUTION_X 72
RESOLUTION_Y 72
SPACING "P"
AVERAGE_WIDTH 116
CHARSET_REGISTRY "ISO10646"
CHARSET_ENCODING "1"
FONTNAME_REGISTRY ""
CHARSET_COLLECTIONS "ISO10646-1"
BITS_PER_PIXEL 4
FONT_NAME "PermanentMarker-Regular"
FACE_NAME "Permanent Marker Regular"
COPYRIGHT "Copyright (c) 2010 by Font Diner, Inc. All rights reserved."
FONT_VERSION "1.001"
FONT_ASCENT 16
FONT_DESCENT 4
UNDERLINE_POSITION -2
UNDERLINE_THICKNESS 1
X_HEIGHT 11
CAP_HEIGHT 14
RAW_ASCENT 799
RAW_DESCENT 200
NORM_SPACE 7
RELATIVE_WEIGHT 40
RELATIVE_SETWIDTH 50
SUPERSCRIPT_X 0
SUPERSCRIPT_Y 9
SUPERSCRIPT_SIZE 12
SUBSCRIPT_X 0
SUBSCRIPT_Y 2
SUBSCRIPT_SIZE 12
AVG_LOWERCASE_WIDTH 114
AVG_UPPERCASE_WIDTH 136
ENDPROPERTIES
CHARS 230
STARTCHAR space
ENCODING 32
SWIDTH 370 0
DWIDTH 7 0
BBX 1 1 0 0
BITMAP
00
ENDCHAR
STARTCHAR exclam
ENCODING 33
SWIDTH 260 0
DWIDTH 5 0
BBX 6 16 0 -1
BITMAP
000580
001FF3
006FF4
00AFF4
00BFF1
01EFD0
04FFA0
06FF80
08FF40
09FE00
016300
000000
4EC400
DFF700
8FF200
173000
ENDCHAR
STARTCHAR quotedbl
ENCODING 34
SWIDTH 492 0
DWIDTH 10 0
BBX 10 10 1 5
BITMAP
0099203B60
01FFD07FF7
07FFD0CFF5
0BFF72FFE1
0EFF27FF90
3FFE0BFF50
5FFA0EFF20
6FF62FFC00
2EF20DF900
0560049100
ENDCHAR
STARTCHAR numbersign
ENCODING 35
SWIDTH 703 0
DWIDTH 14 0
BBX 15 15 0 0
BITMAP
0000004000130000
000005F400AE1000
00000CFB01FF6000
00001FFC06FF8000
0046AFFDADFFA300
05FFFFFFFFFFFE40
06FFFFEDEFFCA710
0048FF50AFF10000
000AFF54EFD30000
3DEFFFFFFFFFA000
6FFFFFFFFFFD6000
19FFF43FFD000000
04FFB09FF6000000
08FF60CFF1000000
03DC106E90000000
ENDCHAR
STARTCHAR dollar
ENCODING 36
SWIDTH 493 0
DWIDTH 10 0
BBX 11 16 0 -1
BITMAP
000000340000
000000DD0000
000004FF2000
00003BFFFD30
028DFFFFFFC0
2EFFFD989980
5FFFF9200000
2CFFFFE10000
00235AFB0000
000001DF2000
00016DFE0000
07CFFFE40000
0AFFFD200000
03BFF6000000
005FE2000000
000430000000
ENDCHAR
STARTCHAR percent
ENCODING 37
SWIDTH 643 0
DWIDTH 13 0
BBX 14 15 0 0
BITMAP
00002100000000
0005EA000006E1
007FFD00006FE0
05FFEF5006FFA0
0DF9BFB05FFB10
0FFFFFA5FFA000
08FFC76FF90000
000005FF900000
00006FFA073000
0007FF91BFB000
008FF81CFFE100
05FF809FCCF700
0DFC00FFBEFB00
2FF700DFFFF500
1CC10039961000
ENDCHAR
STARTCHAR ampersand
ENCODING 38
SWIDTH 599 0
DWIDTH 12 0
BBX 12 11 0 0
BITMAP
000000AB0000
000006FF5000
04CC4BFF5000
2EFFFFFF6100
DFEDFFFFFFA1
BFFFFFFFFFF8
19EEFFFC7630
0000DFF60000
0000EFF20000
0000CFB00000
000002000000
ENDCHAR
STARTCHAR quotesingle
ENCODING 39
SWIDTH 265 0
DWIDTH 5 0
BBX 5 10 1 5
BITMAP
009920
01FFD0
07FFD0
0BFF70
0EFF20
3FFE00
5FFA00
6FF600
2EF200
056000
ENDCHAR
STARTCHAR parenleft
ENCODING 40
SWIDTH 361 0
DWIDTH 7 0
BBX 10 21 0 -4
BITMAP
00000004C4
0000005FF4
000007FFF4
00007FFFE0
0005FFFB20
001EFFB000
009FFE1000
02FFF70000
06FFC00000
09FF800000
0CFF300000
3EFE000000
5FFC000000
5FFB000000
5FFC000000
5FFE000000
1FFF200000
0DFF600000
05FF400000
007F600000
0006300000
ENDCHAR
STARTCHAR parenright
ENCODING 41
SWIDTH 361 0
DWIDTH 7 0
BBX 10 21 -3 -4
BITMAP
000005A200
000005FB00
000004FF80
000005FFF0
000001FFF3
000000DFF6
000000BFF6
000000BFF5
000000CFF5
000000EFE2
000004FFB0
000009FF90
00001EFF60
00009FFE10
0003FFF700
002DFFC000
05EFFE3000
1FFFF40000
4FFE300000
5FD2000000
2820000000
ENDCHAR
STARTCHAR asterisk
ENCODING 42
SWIDTH 673 0
DWIDTH 13 0
BBX 14 11 1 4
BITMAP
00006400044000
0008FE12DF8000
000CFFCDFE1000
0003EFFFF70000
39ACFFFFFFFD50
7FFFFFFFFFFFD1
1CDBFFFFF83200
0007FFDFFB0000
002EFF2BFE0000
008FF701DB0000
00022000110000
ENDCHAR
STARTCHAR plus
ENCODING 43
SWIDTH 579 0
DWIDTH 12 0
BBX 11 11 0 0
BITMAP
000004600000
00003FF30000
00008FF50000
0000DFF50000
368AFFFC9400
AFFFFFFFFF60
6FFFFFEDC930
054CFF800000
000DFF400000
000EFE000000
000493000000
ENDCHAR
STARTCHAR comma
ENCODING 44
SWIDTH 204 0
DWIDTH 4 0
BBX 6 7 -3 -4
BITMAP
004B50
00AFF5
00EFF6
04FFF2
0CFF80
1DFD10
005100
ENDCHAR
STARTCHAR hyphen
ENCODING 45
SWIDTH 609 0
DWIDTH 12 0
BBX 11 4 0 3
BITMAP
267AABCBA600
7FFFFFFFFF90
3FFFFEEDCA50
044100000000
ENDCHAR
STARTCHAR period
ENCODING 46
SWIDTH 228 0
DWIDTH 5 0
BBX 4 5 -1 -1
BITMAP
0100
1CD8
7FFD
3FF8
0560
ENDCHAR
STARTCHAR slash
ENCODING 47
SWIDTH 401 0
DWIDTH 8 0
BBX 11 16 -1 -1
BITMAP
000000000210
000000003E60
00000002EF70
0000001CFF60
0000008FFA00
000005FFC100
00003EFD1000
0001DFE20000
000BFF500000
00AFF7000000
08FFA0000000
3FFC00000000
8FF300000000
AFF000000000
7FC000000000
021000000000
ENDCHAR
STARTCHAR zero
ENCODING 48
SWIDTH 686 0
DWIDTH 14 0
BBX 13 17 0 -1
BITMAP
00000000200000
00000006F90000
0000008FFF7000
000008FFFFC000
00009FFFFF9000
0009FFFFFFD000
006FFFEABFF600
02EFFE303FFC00
0AFFF5000CFF40
1FFF800006FF80
6FFE100005FFC0
9FFA00004DFFE0
AFFB336BFFFFB0
8FFFFFFFFFFE30
2EFFFFFFFFD200
04EFFFFFC40000
00156741000000
ENDCHAR
STARTCHAR one
ENCODING 49
SWIDTH 322 0
DWIDTH 6 0
BBX 6 16 0 -1
BITMAP
008200
03FE20
03FFD0
02FFF3
00CFF5
00BFF6
00CFF6
00FFF5
04FFF2
0AFFE0
0EFF90
4FFF50
7FFE10
7FFA00
2EF500
011000
ENDCHAR
STARTCHAR two
ENCODING 50
SWIDTH 650 0
DWIDTH 13 0
BBX 14 15 1 0
BITMAP
01467753000000
5FFFFFFFC20000
9FFFFFFFFB1000
7FFFFFFFFFA000
1686217FFFE000
000006FFFF9000
00019FFFFB0000
001CFFFFA00000
01CFFFE5000000
0AFFFE40000000
7FFFD101459B40
BFFFCBDFFFFFC0
CFFFFFFFFFFFF1
9FFFFFFFFFD830
1BEFEB96310000
ENDCHAR
STARTCHAR three
ENCODING 51
SWIDTH 561 0
DWIDTH 11 0
BBX 12 15 -1 0
BITMAP
000001245420
027ADFFFFFE2
0DFFFFFFFFFB
2FFFFFFFFFFE
2FFFFFFFFFF6
0356FFFFFC30
000AFFFFA000
000BFFFFFA00
0004DFFFFF80
0000049FFFF1
00000005FFF6
00888ADFFFF4
04FFFFFFFFB0
08FFFFFFD700
04CCCB950000
ENDCHAR
STARTCHAR four
ENCODING 52
SWIDTH 582 0
DWIDTH 12 0
BBX 11 16 1 -1
BITMAP
000000980000
000000DF3000
A90001FF9000
EF5003FF8000
EFB004FF7000
BFE106FFB900
9FFEDFFFFF60
6FFFFFFFFF50
1DFFFFFFA400
0168EFF40000
0000EFD00000
0002FF800000
0003FF700000
0001FFD10000
0000BFF30000
000028700000
ENDCHAR
STARTCHAR five
ENCODING 53
SWIDTH 580 0
DWIDTH 12 0
BBX 13 15 1 0
BITMAP
00003100000000
003BFB10123100
06FFFFFFFFF900
6FFFFFFFFFFE10
DFFFFFFFFFFD20
EFFFFEA7531000
EFFFF500000000
6FFFFFA0000000
05CFFFF8000000
00049FFF300000
000006FFA00000
9A99AFFFD00000
EFFFFFFFA00000
6FFFFFFD100000
06ACCA61000000
ENDCHAR
STARTCHAR six
ENCODING 54
SWIDTH 500 0
DWIDTH 10 0
BBX 11 16 -1 -1
BITMAP
000000470000
00001CFF6000
0000AFFFB000
0004FFFF9000
000CFFC20000
003FFE200000
00AFF8000000
02FFF2265000
07FFA7FFF700
0BFF7FFFFE30
1FFDAFFFFF60
2FFBDFFFFF50
3FFFFFFFF900
1FFFFFFF8000
06FFFC820000
001420000000
ENDCHAR
STARTCHAR seven
ENCODING 55
SWIDTH 576 0
DWIDTH 12 0
BBX 13 15 0 0
BITMAP
03665300000000
6FFFFFFC400000
AFFFFFFFE20000
AFFFFFFFFC0000
253246AFFE0000
0000000EFD0000
0000002FFD1000
00368BDFFFFF40
06FFFFFFFFFF50
0AFFFFFFFEB700
04EEFFFE200000
0001FFF5000000
0007FFA0000000
000AFF40000000
0006EB00000000
ENDCHAR
STARTCHAR eight
ENCODING 56
SWIDTH 537 0
DWIDTH 11 0
BBX 11 16 1 -1
BITMAP
001786103200
03EFFFC0DD00
2EFFFFF5FF50
8FFECFF7DF90
BFF31CFDFFA0
BFF716EFFF30
5FFFEFFFE400
0BFFFFFB2000
0BFFFF700000
3FFFFF900000
6FF3CFE00000
6FF47FF30000
4FFFFFF40000
0CFFFFE10000
02CFFD400000
000230000000
ENDCHAR
STARTCHAR nine
ENCODING 57
SWIDTH 529 0
DWIDTH 11 0
BBX 11 16 0 -1
BITMAP
000004870000
0003CFFF9000
006FFFFFF500
05FFFFCFFD00
0CFFC45DFF20
2FFFFFFFFF90
2FFFFFFFFF70
0CFFFFFFFA00
0157537FF300
000000AFE000
000000DFB000
000001FF8000
000003FF5000
000005FF2000
000005FC0000
000000420000
ENDCHAR
STARTCHAR colon
ENCODING 58
SWIDTH 241 0
DWIDTH 5 0
BBX 5 10 -1 -1
BITMAP
008820
04FFC0
04FFE0
00BD40
000000
010000
1CD800
7FFD00
3FF800
056000
ENDCHAR
STARTCHAR semicolon
ENCODING 59
SWIDTH 245 0
DWIDTH 5 0
BBX 6 13 -2 -4
BITMAP
000782
003FFD
004FFF
000AD5
000000
000000
009820
01FFE0
05FFE0
0AFFA0
3FFF20
5FF800
025000
ENDCHAR
STARTCHAR less
ENCODING 60
SWIDTH 625 0
DWIDTH 13 0
BBX 13 10 0 0
BITMAP
00000000037400
00000004BFFF30
000026CFFFFC20
146BFFFFFC6000
CFFFFFE9400000
CFFFFC20000000
19FFFFFB500000
0029EFFFF90000
0000169DFF6000
00000000372000
ENDCHAR
STARTCHAR equal
ENCODING 61
SWIDTH 586 0
DWIDTH 12 0
BBX 12 7 0 2
BITMAP
059ACDDEDC50
0FFFFFFFFFF1
0DFDBAA98730
010000000000
489BCEEFE500
CFFFFFFFFB00
9ECA88754000
ENDCHAR
STARTCHAR greater
ENCODING 62
SWIDTH 634 0
DWIDTH 13 0
BBX 13 10 -1 0
BITMAP
00662000000000
00DFFC84000000
002EFFFFC60000
00018EFFFFE500
0000006FFFFF40
00017CFFFFFF50
03AFFFFFD93200
8FFFFE84000000
BFFE7100000000
16500000000000
ENDCHAR
STARTCHAR question
ENCODING 63
SWIDTH 556 0
DWIDTH 11 0
BBX 12 16 1 -1
BITMAP
0069A9751000
09FFFFFFFC80
4FFFFFFFFFF4
2EFDDEFFFFF4
0220003EFFF2
000004DFFFB0
0001AFFFFC10
002DFFFE5000
00DFFE910000
04FFB2000000
029900000000
000000000000
AFA100000000
EFF400000000
AFE300000000
181000000000
ENDCHAR
STARTCHAR at
ENCODING 64
SWIDTH 732 0
DWIDTH 15 0
BBX 16 16 -1 -1
BITMAP
000000008AA20000
00000001EFFF5000
00000009FFFFF100
000002BFFB5DFA00
00004DFF8003FF40
0007EFE416B99FC0
008FFE35DFFA2FF2
05FFE39FFFF70EF3
0DFF59FF7CF31FF2
2FFA1FFC5DF67FC0
0FF30CFFFFFFFC10
0EE102BFFEB97000
0AFF930000020000
00AFFFEEDDEF9000
0004BFFFFFFFF200
0000013566651000
ENDCHAR
STARTCHAR A
ENCODING 65
SWIDTH 702 0
DWIDTH 14 0
BBX 15 16 -1 -1
BITMAP
0000000032000000
00000001EFC20000
0000002CFFF70000
00001DFFFFF90000
00008FFFFFFB0000
0001EFFFEFFE0000
0007FFFC4FFF2000
000DFFE20EFF8300
006FFF935DFFFF90
00DFFFFFFFFFFFA0
05FFFCFFFFFFF900
0CFFC2EEB8DFF700
3FFF500004EFF800
4FFF10001CFFF300
0BF7000004FE5000
0010000000100000
ENDCHAR
STARTCHAR B
ENCODING 66
SWIDTH 686 0
DWIDTH 14 0
BBX 15 16 -1 -1
BITMAP
0000036899610000
017CFFFFFFFD3000
2EFFFFFFFFFFE200
6FFFFFB74AFFF700
0CFEED207FFFF300
0174DFDDFFFF9000
0002FFFFFFFA0000
0006FFFFFFF70000
000AFFFFEDFFA000
001EFFA2001EF800
005FFF3001BFFE00
00AFFD039FFFFE10
00DFFDDFFFFFF600
00EFFFFFFFFB3000
007FEFFFD9400000
0004235400000000
ENDCHAR
STARTCHAR C
ENCODING 67
SWIDTH 611 0
DWIDTH 12 0
BBX 12 15 0 0
BITMAP
000000002400
00000018EFC1
000007EFFFFB
0005DFFFFFF9
007FFFFFFE91
07FFFFFB4000
4FFFFD600000
CFFFA1000000
FFFA00000000
EFF100000000
BFF200000000
6FFFC9876610
1CFFFFFFFFC0
02BFFFFFFFF3
00048BDFED50
ENDCHAR
STARTCHAR D
ENCODING 68
SWIDTH 588 0
DWIDTH 12 0
BBX 12 16 0 -1
BITMAP
034000000000
0AFD61000000
08FFFFA10000
0BFFFFFE4000
0CFB7DFFF600
09FD004CFF40
07FF0001CFE0
07FF00002FF5
0AFF0000AFF6
0EFD006DFFF3
3FFC6CFFFF80
8FFFFFFFE700
AFFFFFFB2000
8FFFFA300000
2EE820000000
011000000000
ENDCHAR
STARTCHAR E
ENCODING 69
SWIDTH 626 0
DWIDTH 13 0
BBX 13 16 0 -1
BITMAP
00000000025400
000037ADFFFF90
01AEFFFFFFFFD0
08FFFFFFFFEB20
06FFFFEC620000
02EFF800000000
00CFFFEFF90000
04FFFFFFFFA000
0BFFFFFFFC3000
4FFFA877500000
AFFE1000000000
CFFB4577AEC200
AFFFFFFFFFFB00
6FFFFFFFFFF500
09FFFFEDB72000
00022100000000
ENDCHAR
STARTCHAR F
ENCODING 70
SWIDTH 575 0
DWIDTH 12 0
BBX 16 16 -1 -1
BITMAP
000000001479A600
0000038CFFFFFF90
0038DFFFFFFFFFF2
00CFFFFFFC976530
00AFFFF910000000
001BFFF300000000
0005FFC000000000
047BFFB68AB30000
3FFFFFFFFFFC0000
4FFFFFFFFFF50000
0BFFFFD975200000
04FFE10000000000
08FF800000000000
07FF500000000000
01DF200000000000
0001000000000000
ENDCHAR
STARTCHAR G
ENCODING 71
SWIDTH 789 0
DWIDTH 16 0
BBX 17 15 0 0
BITMAP
000000000450000000
000000019FFA100000
0000006EFFFF500000
00001BFFFFFF500000
0002DFFFFF92000000
002DFFFFA200000000
02EFFFE50039100000
0BFFFE3004FFE81000
5FFFE20002FFFFE300
DFFF300000BFFFFE40
DFF7000036BFFFFF80
AFF987CFFFFFFFFC10
7FFFFFFFFFFFFE8100
1DFFFFFFFFD9400000
02AFFEB97200000000
ENDCHAR
STARTCHAR H
ENCODING 72
SWIDTH 695 0
DWIDTH 14 0
BBX 15 16 -1 -1
BITMAP
0000000000028000
0006C000000AF300
000CF600000CFB00
001FFF20001DFF50
003FFF50001FFF60
004FFF30003FFF70
006FFF10005FFF70
009FFD0004BFFF30
00CFFD8BEFFFFF00
03FFFFFFFFFFFC00
06FFFFFFFFFFF600
0BFFFFE94AFFE000
1EFFFA100CFFE000
0DFFE10008FFC000
07FF600000CB2000
0031000000000000
ENDCHAR
STARTCHAR I
ENCODING 73
SWIDTH 515 0
DWIDTH 10 0
BBX 14 16 -1 -1
BITMAP
00001366788630
000BFFFFFFFFF6
000AFFFFFFFFFD
0005FEDFFD8741
0000109FF70000
000000CFF30000
000002FFE00000
000006FF900000
00000DFF500000
00003FFF100000
0000AFFA000000
0003FFF9400000
7DFFFFFFF90000
9FFFFFFFFB0000
4FFDA996610000
02100000000000
ENDCHAR
STARTCHAR J
ENCODING 74
SWIDTH 668 0
DWIDTH 13 0
BBX 17 15 -1 0
BITMAP
000000000233231000
00179CEEFFFFFFFE20
00AFFFFFFFFFFFFFC0
009FFFFFFFFFFFFFC0
002CD8532EFF500100
000000002FFF200000
000000005FFD000000
000000009FF9000000
00000000DFF6000000
00000004FFF2000000
0000000BFFC0000000
2CB644AFFF60000000
5FFFFFFFFE10000000
2FFFFFFFE300000000
0488CEC92000000000
ENDCHAR
STARTCHAR K
ENCODING 75
SWIDTH 776 0
DWIDTH 16 0
BBX 16 16 0 -1
BITMAP
0000440000000000
0002FFB000007500
000AFFF5004DFF70
002FFFE208FFFFE0
007FFF82CFFFFF50
00CFFF5EFFFFB300
02FFFFFFFFE60000
08FFFFFFFD300000
0DFFFFFFE1000000
2FFFFFFFF6000000
5FFFFFEFFFC87670
AFFFF90AFFFFFFFB
9FFFC0007FFFFFFA
5FFE2000027CFFC2
1DF5000000000000
0120000000000000
ENDCHAR
STARTCHAR L
ENCODING 76
SWIDTH 632 0
DWIDTH 13 0
BBX 13 16 0 -1
BITMAP
00046100000000
000BFF70000000
001EFFC0000000
005FFF70000000
00AFFF20000000
01FFFB00000000
06FFF500000000
0CFFE000000000
1FFF9000000000
6FFF3000000000
AFFE0000100000
CFFE8CEFFE8200
AFFFFFFFFFFE00
4FFFFFFFFFFF30
0AFFFC86567400
00231000000000
ENDCHAR
STARTCHAR M
ENCODING 77
SWIDTH 973 0
DWIDTH 19 0
BBX 20 16 0 -1
BITMAP
00000480000000002000
00003FFB30000006FB10
0000CFFFC000003EFFB0
0007FFFFF30004EFFFF3
001EFFFFF3005FFFFFF1
007FFFFFF42AFFFFFFD0
00DFFFFFFFFFFFFFFFB0
05FFFFFFFFFFFFDEFFA0
0CFFF9FFFFFFF91FFF60
3FFFC09FFFFB304FFF50
9FFF80047520007FFF30
DFFE20000000009FFE00
CFF900000000009FF800
AFF200000000007FF200
4FB00000000000194000
03100000000000000000
ENDCHAR
STARTCHAR N
ENCODING 78
SWIDTH 684 0
DWIDTH 14 0
BBX 16 15 -1 0
BITMAP
0000022000006100
00000AF80001FD30
00002FFF8007FFE0
00009FFFC00CFFF1
0001FFFFA00EFFA0
0008FFFF602FFF40
001EFFFF305FFF10
008FFFFF30AFFD00
01EFFFFF32FFFC00
07FFFFFF5CFFF900
1EFFFDFFFFFFF400
2FFFF4BFFFFFD000
1EFFA03EFFFF4000
08FF5004EFF60000
01CB100038400000
ENDCHAR
STARTCHAR O
ENCODING 79
SWIDTH 744 0
DWIDTH 15 0
BBX 15 16 0 -1
BITMAP
000000004C400000
0000001BFFE40000
000001BFFFFC0000
00003EFFFFF90000
0004EFFFFFFD0000
003EFFFDBCFF6000
01DFFFA103FFD000
09FFF90000AFF600
2FFFA000002FFB00
8FFE1000001FFF10
BFF8000005DFFF20
BFFA5569DFFFFE00
8FFFFFFFFFFFE400
1DFFFFFFFFFA2000
02AFFFFDB7100000
0001132000000000
ENDCHAR
STARTCHAR P
ENCODING 80
SWIDTH 639 0
DWIDTH 13 0
BBX 14 16 0 -1
BITMAP
00000169884000
00004DFFFFFC10
0003EFFFFFFF80
000AFFFFFFFFE0
001FFF9558EFF4
01BFFB0049FFF5
09FFFCAEFFFFF4
0FFFFFFFFFFFB0
3FFFFFFFFFE800
0EFFFFFEA61000
0AFFC520000000
0CFF9000000000
0EFF8000000000
2FFF5000000000
0CFD0000000000
01310000000000
ENDCHAR
STARTCHAR Q
ENCODING 81
SWIDTH 744 0
DWIDTH 15 0
BBX 16 17 -1 -2
BITMAP
0000000048710000
00000000CFFE4000
00000004FFFFE200
0000005EFFFFF800
000007FFFFFFFF30
0001AFFFF917FFB0
001CFFFE5000CFF3
00CFFFD342007FF5
07FFFD24FFA1DFF5
0EFFD200CFFDFFF3
1FFF40004FFFFFC0
0EFD037CFFFFFE20
0CFFFFFFFFFFF900
07FFFFFFFFDFFE00
006DFFFC830CFF40
000032000004FE20
0000000000002100
ENDCHAR
STARTCHAR R
ENCODING 82
SWIDTH 646 0
DWIDTH 13 0
BBX 13 16 0 -1
BITMAP
00000038200000
000005FFE40000
00003FFFFF4000
0001DFFFFFD000
01BDFFDAFFF400
04FFFE30CFFA00
08FFF517DFFB00
0BFFFCFFFFF700
1EFFFFFFFF8000
3FFFFFFD820000
5FFFFF80000000
8FFFFFFA400000
AFFCEFFFFFB940
7FF62CFFFFFFC0
3EC0004AFFFFD0
01000000169A40
ENDCHAR
STARTCHAR S
ENCODING 83
SWIDTH 576 0
DWIDTH 12 0
BBX 14 16 0 -1
BITMAP
00000003588720
000149DFFFFFC0
017EFFFFFFFFF6
2EFFFFFFEFFFF8
AFFFFE62010010
BFFFFFC4000000
8FFFFFFF700000
048ADEFFD10000
0000006DFA0000
0000000AFE0000
0000019FFD0000
00039EFFF70000
0CFFFFFFA00000
0DFFFFE7000000
0AFFE820000000
01320000000000
ENDCHAR
STARTCHAR T
ENCODING 84
SWIDTH 607 0
DWIDTH 12 0
BBX 16 16 0 -1
BITMAP
0000003324678830
6889BCEFFFFFFFE2
EFFFFFFFFFFFFFF8
BFFFFFFFFFDBA971
3CCBADFFD0000000
00001EFF70000000
00007FFF10000000
0000DFFA00000000
0004FFF300000000
0009FFB000000000
000EFF5000000000
001FFE0000000000
001FFA0000000000
000CFE3000000000
0006FF7000000000
0000250000000000
ENDCHAR
STARTCHAR U
ENCODING 85
SWIDTH 695 0
DWIDTH 14 0
BBX 14 15 1 0
BITMAP
00000000000500
00000000004F70
1B400000009FC0
5FE2000000CFF2
8FF8000000FFF5
AFFD000005FFF3
DFFB00000BFFF0
FFF700006FFF90
FFF60005FFFF20
FFF7018FFFF800
EFFDAEFFFF8100
9FFFFFFFF90000
5FFFFFFFC10000
0CFFFFF8000000
02ACC820000000
ENDCHAR
STARTCHAR V
ENCODING 86
SWIDTH 583 0
DWIDTH 12 0
BBX 13 16 1 -1
BITMAP
04000000017300
8F5000001CFD00
AFE20000BFFF10
9FF80008FFFD00
8FFB004FFFF300
7FFD01DFFF6000
8FFE08FFF80000
7FFF4FFFC00000
4FFFEFFE200000
2FFFFFF8000000
0EFFFFC1000000
0CFFFF40000000
08FFF800000000
03FFF300000000
009FB000000000
00020000000000
ENDCHAR
STARTCHAR W
ENCODING 87
SWIDTH 994 0
DWIDTH 20 0
BBX 21 16 0 -1
BITMAP
0000100000000000005100
0009E3000001000001ED10
003FFE20003E500008FF80
00AFFF1001DFF3000EFFC0
01FFFB0008FFF7005FFF90
06FFF6003FFFF400BFFF20
0AFFF100CFFFF102FFFA00
0DFFB006FFFFC008FFF400
1FFF702EFFFFA02FFFD000
5FFF31DFFFFFA1CFFF6000
7FFF4DFFFFFFEDFFFD0000
7FFFFFFFF7AFFFFFF60000
1EFFFFFF502FFFFFA00000
07FFFFD30008FFFD100000
006CB6000001BFC2000000
0000000000000100000000
ENDCHAR
STARTCHAR X
ENCODING 88
SWIDTH 623 0
DWIDTH 12 0
BBX 15 16 -1 -1
BITMAP
0003000000000000
003FD3000003BC00
005FFF40007FFF60
005FFFE22BFFFF70
000DFFFDEFFFFA10
0002EFFFFFFD4000
00005FFFFFA10000
00008FFFF9000000
0008FFFFFC000000
007FFFFFFF600000
05FFFF8DFFE30000
0DFFF603FFFB0000
2FFF70009FFF1000
4FFA00002FFE1000
1EF5000007F70000
0360000000100000
ENDCHAR
STARTCHAR Y
ENCODING 89
SWIDTH 493 0
DWIDTH 10 0
BBX 12 16 0 -1
BITMAP
055000000680
0DFC1000BFFA
0BFF600AFFFE
0AFF907FFFE4
07FFC3EFFF40
05FFFDFFF600
01FFFFFF9000
00AFFFFE1000
002EFFF70000
003FFFC00000
00BFFF300000
03FFF9000000
0BFFF2000000
1FFF80000000
0DFE10000000
028400000000
ENDCHAR
STARTCHAR Z
ENCODING 90
SWIDTH 664 0
DWIDTH 13 0
BBX 15 16 -1 -1
BITMAP
0000235433323100
0001FFFFFFFFFE20
0000FFFFFFFFFFC0
00008FFFFFFFFFB0
000003213EFFFE30
00000004EFFFB100
0000019FFFFA0000
00005EFFFFA00000
0018FFFFE6000000
02CFFFFB20000000
0BFFFF7000161000
1FFFF4038BFFC300
3FFFFDEFFFFFF600
1EFFFFFFFFFD6000
05FFFFFED9400000
004AC96200000000
ENDCHAR
STARTCHAR bracketleft
ENCODING 91
SWIDTH 387 0
DWIDTH 8 0
BBX 16 22 -1 -4
BITMAP
0000079CEEFFEC30
00001FFFFFFFFFE1
00000FFFFFEEDB70
00003FFB10000000
00006FF700000000
0000AFF400000000
0000EFF100000000
0003FFC000000000
0007FF8000000000
000BFF4000000000
001FFF1000000000
004FFC0000000000
009FF80000000000
00DFF40000000000
02FFE00000000000
07FFA00000000000
0BFF600000000000
1FFF223310000000
6FFFFFFFD3000000
8FFFFFFFF8000000
3FFEBAA761000000
0320000000000000
ENDCHAR
STARTCHAR backslash
ENCODING 92
SWIDTH 352 0
DWIDTH 7 0
BBX 5 16 1 -1
BITMAP
850000
CF7000
AFE000
7FF100
5FF300
1FF500
0EF700
0BFA00
09FD00
06FF10
03FF40
01FF50
00FF70
00FFA0
00CFA0
002620
ENDCHAR
STARTCHAR bracketright
ENCODING 93
SWIDTH 403 0
DWIDTH 8 0
BBX 15 23 -6 -4
BITMAP
0000000001220000
000007BEFFFFE700
00000CFFFFFFFF30
000009FFEDEFFF20
00000152001FFE00
00000000004FFA00
00000000008FF700
0000000000CFF300
0000000001FFE000
0000000005FFA000
0000000008FF6000
000000000CFF2000
000000002FFE0000
000000006FFA0000
00000000BFF70000
00000001EFF20000
00000005FFC00000
00000009FF800000
0000123EFF300000
4ACEFFFFFD000000
8FFFFFFFF8000000
3FFEBAA761000000
0320000000000000
ENDCHAR
STARTCHAR asciicircum
ENCODING 94
SWIDTH 518 0
DWIDTH 10 0
BBX 10 12 0 3
BITMAP
000003C600
000009FF10
00003EFF50
0000BFFF80
0006FFFFB0
001EFEEFD0
00BFF6AFF0
08FFB09FF0
5FFE207FF0
DFF6003FF2
CF800008F1
2600000030
ENDCHAR
STARTCHAR underscore
ENCODING 95
SWIDTH 708 0
DWIDTH 14 0
BBX 17 4 -2 -1
BITMAP
122355666665420000
DFFFFFFFFFFFFFD400
AFFFFFFFFFFFFFFD10
18A865444444321000
ENDCHAR
STARTCHAR grave
ENCODING 96
SWIDTH 754 0
DWIDTH 15 0
BBX 7 6 5 9
BITMAP
04B10000
0EFE3000
2FFFE300
02DFFE20
001BFF90
00008E70
ENDCHAR
STARTCHAR a
ENCODING 97
SWIDTH 581 0
DWIDTH 12 0
BBX 13 13 -1 -1
BITMAP
0000001C820000
000001BFF90000
00009EFFFB0000
0004FFFFFE0000
000BFFECFF2000
002FFF47FF6000
00AFF916FFEC30
02FFFFFFFFFF50
09FFBFFFFFF500
1EFD18858FF500
5FF80004EFF400
1EE30000DF8000
01100000120000
ENDCHAR
STARTCHAR b
ENCODING 98
SWIDTH 573 0
DWIDTH 11 0
BBX 12 14 -1 -1
BITMAP
000000010000
0048BDFFEA10
2CFFFFFFFFC0
6FFFFB76EFF4
0BFCE44DFFE1
0039FFFFFF50
000CFFFFF800
001FFFFFFF60
005FFA301CF5
00BFF3018FFB
01FFD49EFFF9
04FFFFFFFFA1
01EFFFFD9300
002536400000
ENDCHAR
STARTCHAR c
ENCODING 99
SWIDTH 513 0
DWIDTH 10 0
BBX 10 13 0 -1
BITMAP
0000005C90
00004BFFFA
001AFFFFFA
03DFFFFD81
2DFFFD4000
AFFF710000
FFF4000000
EF90000000
BFB2000000
6FFFECBB80
09FFFFFFF5
005AEFFFB1
0000012100
ENDCHAR
STARTCHAR d
ENCODING 100
SWIDTH 497 0
DWIDTH 10 0
BBX 10 13 0 -1
BITMAP
0B93000000
0CFFD60000
0DFFFFB100
0EF59EFD20
0BF401AFC0
0BF6000AF6
0CF6001CF9
1FF506DFF6
5FF9DFFFA0
9FFFFFF700
9FFFFA2000
4FE8100000
0200000000
ENDCHAR
STARTCHAR e
ENCODING 101
SWIDTH 521 0
DWIDTH 10 0
BBX 11 13 0 -1
BITMAP
0000157ACC40
028CFFFFFFD0
0BFFFFFFEB30
09FFEA830000
03FFB5650000
05FFFFFF9000
0CFFFFFFA000
5FFD88730000
BFF400013000
BFFAABCFF700
9FFFFFFFFB00
2DFFFFFC8100
003431000000
ENDCHAR
STARTCHAR f
ENCODING 102
SWIDTH 455 0
DWIDTH 9 0
BBX 13 14 -1 -1
BITMAP
00000000012000
0000027BEFFC10
0038DFFFFFFFA0
01FFFFFEB86520
00DFFF60000000
002DFE10000000
012EFB13520000
2EFFFFFFFC0000
4FFFFFFFF90000
0AFFDA74200000
08FF1000000000
0AFB0000000000
05FA0000000000
00210000000000
ENDCHAR
STARTCHAR g
ENCODING 103
SWIDTH 652 0
DWIDTH 13 0
BBX 14 13 0 -1
BITMAP
00000008E50000
000004DFFF4000
00009FFFFE4000
001BFFFF910000
01BFFFB2010000
0AFFF8008F9100
5FFF7000CFFE60
DFF800007FFFF7
DFC00147BFFFFB
AFEDCFFFFFFFC2
4FFFFFFFFEA400
07EFFDB8400000
00021000000000
ENDCHAR
STARTCHAR h
ENCODING 104
SWIDTH 582 0
DWIDTH 12 0
BBX 13 14 -1 -1
BITMAP
00000000001000
0007100003E100
002F800007F700
006FF4000AFF10
008FF6000CFF30
009FF4000DFF30
00CFF1002FFF10
00EFF58BFFFD00
05FFFFFFFFFA00
09FFFFFEFFF400
0DFFFA32FFE000
1FFF8001FFE000
0AFD10009E6000
01410000010000
ENDCHAR
STARTCHAR i
ENCODING 105
SWIDTH 320 0
DWIDTH 6 0
BBX 5 13 1 -1
BITMAP
01A700
06FD00
0AFF20
0DFF40
2FFE00
6FF900
9FF500
BFF300
CFF100
CFF100
8FF200
3FE100
031000
ENDCHAR
STARTCHAR j
ENCODING 106
SWIDTH 534 0
DWIDTH 11 0
BBX 15 13 -1 -1
BITMAP
00036789ABBB9300
00CFFFFFFFFFFE10
00DFFFFFFFEEEE20
004B7316FF600000
00000008FF200000
0000000CFE000000
0000001FFA000000
0000007FF6000000
010001DFF1000000
4FE99DFFA0000000
4FFFFFFE20000000
09BDFEA200000000
0000100000000000
ENDCHAR
STARTCHAR k
ENCODING 107
SWIDTH 645 0
DWIDTH 13 0
BBX 14 13 0 -1
BITMAP
0007D500002100
001EFF1018FC10
008FFD13DFFF80
00DFF76FFFFB10
04FFFBFFFE6000
09FFFFFFC10000
0EFFFFFA000000
4FFFFFFC100000
7FFFFCFFEA9960
BFFF708FFFFFF3
8FFB0004BFFFC0
3FD10000014400
03100000000000
ENDCHAR
STARTCHAR l
ENCODING 108
SWIDTH 533 0
DWIDTH 11 0
BBX 11 13 0 -1
BITMAP
002EA3000000
006FFA000000
00BFF7000000
01FFF1000000
07FFA0000000
0CFF40000000
2FFE00000000
7FF900000000
BFF513441000
CFFDEFFFE800
8FFFFFFFFF20
1EFFEB98A810
014300000000
ENDCHAR
STARTCHAR m
ENCODING 109
SWIDTH 814 0
DWIDTH 16 0
BBX 16 14 0 -1
BITMAP
0000010000000000
0000AE4000000960
0006FFF400006FF7
001EFFFA0006FFFF
008FFFFA008FFFFD
01EFFFFD6DFFFFFA
07FFFFFFFFFFFFFA
0DFFCFFFFFF97FF7
5FFF1AFFFB30AFF5
AFFC00352000DFF3
DFF400000000FFD0
CFC000000000EF70
7F60000000007A10
0400000000000000
ENDCHAR
STARTCHAR n
ENCODING 110
SWIDTH 564 0
DWIDTH 11 0
BBX 13 13 -1 -1
BITMAP
00004A2000C600
0000BFE202FF70
0003FFF708FFA0
000AFFF50AFF40
002FFFE10DFE00
00AFFFE02FFB00
02FFFFE08FFA00
09FFFFF4FFF700
2FFFDEFFFFF200
2FFF47FFFFA000
0CFD00BFFD1000
04F70008A20000
00100000000000
ENDCHAR
STARTCHAR o
ENCODING 111
SWIDTH 628 0
DWIDTH 13 0
BBX 12 14 0 -1
BITMAP
000000021000
0000007EE200
000009FFFD00
0001CFFFFB00
001CFFFFFE10
00CFFE75EF80
09FFE3008FE1
2FFE20001EF6
8FF600000CFB
CFE00004BFFC
BFFB9BEFFFF7
5FFFFFFFFF70
07EFFFFC6100
001333000000
ENDCHAR
STARTCHAR p
ENCODING 112
SWIDTH 524 0
DWIDTH 10 0
BBX 12 14 0 -1
BITMAP
000000100000
00008EFFD600
000BFFFFFF40
005FFFFFFFB0
00AFE634DFF0
08FF926BFFF1
2FFFFFFFFFC0
5FFFFFFFFB20
3FFFFFC83000
0FFD31000000
3FFB00000000
6FF900000000
3FF400000000
043000000000
ENDCHAR
STARTCHAR q
ENCODING 113
SWIDTH 625 0
DWIDTH 13 0
BBX 13 14 -1 -2
BITMAP
0000000EFB2000
0000004FFFD100
000004EFFFF700
00007FFFEDFE20
0009FFFA11EF90
00BFFF70007FE0
07FFF55EB1AFE0
0DFF602EFDFFD0
1FFB0019FFFF60
0EF98CFFFFFA00
0BFFFFFFFFFA00
01BFFFE949FE10
0003310002ED00
00000000001000
ENDCHAR
STARTCHAR r
ENCODING 114
SWIDTH 541 0
DWIDTH 11 0
BBX 11 13 0 -1
BITMAP
00001CE50000
0000CFFF6000
0009FFFFF200
05DFFBAFF800
09FFC11FFC00
0CFFAAEFFB00
1FFFFFFFD200
4FFFFFC61000
7FFFF9000000
AFFFFFD74100
AFE5EFFFFF90
5F8018EFFFC0
020000049A50
ENDCHAR
STARTCHAR s
ENCODING 115
SWIDTH 463 0
DWIDTH 9 0
BBX 12 13 0 -1
BITMAP
000027BEFE70
016CFFFFFFF2
3EFFFFFEFEF5
AFFFE5100000
BFFFFF700000
3BFFFFF50000
000249EE1000
000001CF5000
00003BFF3000
057BFFFA0000
0FFFFFA10000
0DFFC5000000
035200000000
ENDCHAR
STARTCHAR t
ENCODING 116
SWIDTH 479 0
DWIDTH 10 0
BBX 13 14 0 -1
BITMAP
00000000001000
23346BABDFFF40
EFFFFFFFFFFFE0
CFFFFFFFDBA950
3998CFF5000000
0001EFE0000000
0007FF80000000
000CFF20000000
003FF900000000
007FF300000000
009FD000000000
007FC000000000
002EF600000000
00026100000000
ENDCHAR
STARTCHAR u
ENCODING 117
SWIDTH 584 0
DWIDTH 12 0
BBX 12 12 1 0
BITMAP
000000000C30
170000003FA0
7F8000007FE0
9FE10000AFF2
CFF30001FFE0
EFE00009FFA0
FFD0006FFF30
FFE018FFFA00
EFFBFFFF9100
8FFFFFFC0000
3FFFFFB10000
07DEB5000000
ENDCHAR
STARTCHAR v
ENCODING 118
SWIDTH 485 0
DWIDTH 10 0
BBX 11 13 1 -1
BITMAP
5B000002DB00
AF70001DFF20
9FE000BFFE00
8FF307FFF400
8FF52EFF7000
8FF6BFFA0000
5FFDFFD10000
4FFFFF500000
1FFFFA000000
0DFFE2000000
08FF70000000
03EE30000000
001200000000
ENDCHAR
STARTCHAR w
ENCODING 119
SWIDTH 825 0
DWIDTH 17 0
BBX 18 13 0 -1
BITMAP
000920000000000B60
008FD1000930003FF2
01EFF2007FE200AFF6
06FFC002FFF401FFF3
0AFF700BFFF107FFB0
0EFF205FFFD00DFF50
2FFC01EFFFA06FFD00
5FF91CFFFF93EFF600
8FF9CFFFEFEEFFD000
6FFFFFF92FFFFF5000
0DFFFF7009FFFA0000
02CEA30001DFA00000
000000000012000000
ENDCHAR
STARTCHAR x
ENCODING 120
SWIDTH 506 0
DWIDTH 10 0
BBX 13 13 -1 -1
BITMAP
00691000005500
00AFE3001BFE10
00AFFE24EFFF30
003EFFDFFFE600
0005FFFFFB1000
0000EFFF700000
000CFFFF300000
00BFFFFFC00000
08FFF6CFF80000
1FFF503FFF1000
4FF70009FF3000
2FE00003EC0000
05400000110000
ENDCHAR
STARTCHAR y
ENCODING 121
SWIDTH 400 0
DWIDTH 8 0
BBX 11 14 0 -1
BITMAP
000000001000
0CB20008F700
0DFB009FFF20
0BFF06FFF700
09FF5EFF8000
06FFFFFA1000
01FFFFE10000
008FFF600000
008FFC000000
02FFF3000000
08FFA0000000
1FFE20000000
1EF900000000
039100000000
ENDCHAR
STARTCHAR z
ENCODING 122
SWIDTH 547 0
DWIDTH 11 0
BBX 13 13 -1 -1
BITMAP
0005BDCBBAB800
0008FFFFFFFF50
0003FFFEFFFF60
00001109FFFA00
000001BFFF6000
00006EFFF50000
001AFFFE400000
04EFFFA1000000
0DFFE600274000
2FFF859EFFD400
2FFFFFFFFFC200
09FFFFEE940000
006CA720000000
ENDCHAR
STARTCHAR braceleft
ENCODING 123
SWIDTH 448 0
DWIDTH 9 0
BBX 16 22 0 -4
BITMAP
0000018ADEEFFEB2
000004FFFFFFFFFD
000003FFFFFEECB6
000006FF91000000
000009FF40000000
00000DFF10000000
00002FFD00000000
0016DFF900000000
28DFFFF400000000
8FFFF92000000000
6FFFB10000000000
1AFFFE5000000000
007FFF6000000000
001FFF2000000000
005FFC0000000000
00AFF70000000000
00EFF30000000000
04FFD12331000000
09FFFFFFFC100000
0AFFFFFFFF500000
06FFDBA975000000
0042000000000000
ENDCHAR
STARTCHAR bar
ENCODING 124
SWIDTH 332 0
DWIDTH 7 0
BBX 7 16 0 -1
BITMAP
00001800
00009F30
0000EF80
0005FF70
000AFF10
000DFA00
004FF400
009FE000
00EF9000
04FF5000
09FF1000
1EFA0000
8FF30000
EFD00000
CF800000
14000000
ENDCHAR
STARTCHAR braceright
ENCODING 125
SWIDTH 481 0
DWIDTH 10 0
BBX 16 23 -6 -4
BITMAP
0000000001210000
000009BEFFFFE400
00001FFFFFFFFF00
00000CFFEDEFFE00
00000251004FFA00
00000000007FF700
0000000000BFF300
0000000001FFF000
0000000005FFB000
000000000AFFB100
000000000CFFFD30
00000000018FFFE0
00000000018EFFF3
000000006EFFFDB0
00000000EFFE7100
00000003FFE10000
00000007FFA00000
0000000CFF500000
0000124FFF100000
6ACEFFFFFA000000
BFFFFFFFF5000000
6FFDBA9750000000
0420000000000000
ENDCHAR
STARTCHAR asciitilde
ENCODING 126
SWIDTH 581 0
DWIDTH 12 0
BBX 11 4 0 4
BITMAP
02AEEA205BB0
1DFFFFD7FF80
9FE5CFFFFC00
994018BB8100
ENDCHAR
STARTCHAR uni00A0
ENCODING 160
SWIDTH 370 0
DWIDTH 7 0
BBX 1 1 0 0
BITMAP
00
ENDCHAR
STARTCHAR exclamdown
ENCODING 161
SWIDTH 260 0
DWIDTH 5 0
BBX 7 16 -1 -1
BITMAP
0005C500
001FFD00
004FFE10
0016A400
00000000
004A5000
00DFC000
02FFB000
05FF9000
08FF7000
0AFF1000
0EFE0000
2FFC0000
1FF80000
0CF30000
03300000
ENDCHAR
STARTCHAR cent
ENCODING 162
SWIDTH 488 0
DWIDTH 10 0
BBX 10 16 0 -1
BITMAP
0000016000
000008F300
00000DFA00
00003FFFC1
0007EFFFF4
02CFFFFC60
1DFFFA2000
9FFC200000
BFC1000000
AF90000000
5FFDB98820
08FFFFFFC0
00AFFDDC40
01FFC00000
00EF700000
0025000000
ENDCHAR
STARTCHAR sterling
ENCODING 163
SWIDTH 586 0
DWIDTH 12 0
BBX 13 12 -1 1
BITMAP
0000006CEC9810
000009FFFFFF70
00003FFFAADF70
00009FF5000200
0257EFFB940000
08FFFFFFFF5000
06FFFFEDC93000
005DFE00000000
001EFC236B8000
2EFFFFFFFFF200
0CFFFFFFFFD200
02789766420000
ENDCHAR
STARTCHAR currency
ENCODING 164
SWIDTH 509 0
DWIDTH 10 0
BBX 10 11 0 0
BITMAP
0492184073
07FEDFFDFC
05FFFFFFF9
03FFFFFF50
0CFF99FF30
3FFA18FF70
5FFFFFFF70
6FFFFFFE00
BFDCBAFF20
AF2000DD10
2600001200
ENDCHAR
STARTCHAR yen
ENCODING 165
SWIDTH 563 0
DWIDTH 11 0
BBX 12 14 0 -1
BITMAP
003500001740
009FB001BFF4
007FF20BFFF3
006FF57FFF40
003FFBFFF600
001EFFFF9000
48AEFFFFC700
AFFFFFFFFF70
5FFFFFDBA720
032EFF300000
008FFA000000
00DFF2000000
007F80000000
000100000000
ENDCHAR
STARTCHAR brokenbar
ENCODING 166
SWIDTH 301 0
DWIDTH 6 0
BBX 8 16 -1 -1
BITMAP
00000450
00000DE0
00004FF3
00009FF2
0001EFB0
0005FF50
0005FE10
00005300
00000000
006C4000
01EFB000
06FF6000
0DFF1000
3FF90000
2FF40000
02300000
ENDCHAR
STARTCHAR section
ENCODING 167
SWIDTH 630 0
DWIDTH 13 0
BBX 13 18 0 -2
BITMAP
00000258ABA300
0039DFFFFFFE20
01FFFFFFFFFF30
04FFFEB8659500
04FFFE60000000
00BFFFFE810000
008FFFFFFD4000
08FFFFFFFFE300
2FFFD754BFFA00
2FFF5137DFFC00
0AFFFFFFFFF400
00AFFFFFFE5000
0005DFFFFF4000
000004CFFFC000
055347AFFFD000
8FFFFFFFFFB000
8FFFFFFFD92000
08DDCA62000000
ENDCHAR
STARTCHAR dieresis
ENCODING 168
SWIDTH 754 0
DWIDTH 15 0
BBX 9 4 4 11
BITMAP
0580007720
5FF902FFD0
7FFA02FFC0
2970003710
ENDCHAR
STARTCHAR copyright
ENCODING 169
SWIDTH 614 0
DWIDTH 12 0
BBX 13 13 0 2
BITMAP
00000047200000
0001BFFFF70000
002EFD822DB100
00DFA116A5F700
08FC17EFF4ED00
1EF3AFE830AF20
6FB6F910009F20
8F68C00000BF20
8F76FC8603FC00
5FA09FFE3EF500
0BF30035CF7000
01CEB8CFF60000
0005BCD9200000
ENDCHAR
STARTCHAR ordfeminine
ENCODING 170
SWIDTH 454 0
DWIDTH 9 0
BBX 9 9 0 4
BITMAP
00006B5000
0028FFF000
00BFFFF200
04FFFFF500
0BFFAFFE70
4FFFFFFFC0
BFFEFFFF30
EFC14FFE10
6C4008C400
ENDCHAR
STARTCHAR guillemotleft
ENCODING 171
SWIDTH 566 0
DWIDTH 11 0
BBX 12 10 -1 -1
BITMAP
000004400053
00005FC006FA
0007FF918FF8
04CFFB5DFFA0
2FFF84FFF700
1FFB03FF9000
08FFC1AFFB00
008FF809FF60
0005DE006DC0
000004000140
ENDCHAR
STARTCHAR logicalnot
ENCODING 172
SWIDTH 698 0
DWIDTH 14 0
BBX 13 8 0 -1
BITMAP
367AABBCBA8200
CFFFFFFFFFFE40
8FFFFEEDDEFF70
054200000AFF20
000000003FFB00
000000007FF400
000000004EC100
00000000010000
ENDCHAR
STARTCHAR sfthyphen
ENCODING 173
SWIDTH 608 0
DWIDTH 12 0
BBX 11 4 0 3
BITMAP
267AABCBA600
7FFFFFFFFF80
4FFFFEEDCA50
044100000000
ENDCHAR
STARTCHAR registered
ENCODING 174
SWIDTH 624 0
DWIDTH 12 0
BBX 13 13 0 2
BITMAP
00000027400000
00019EFFF91000
001CFE941BD200
00BFC24E92FA00
05FE24EFF5BF10
0CF64FC3F97F50
3FD09FDEF56F50
5F80EFE9308F50
5FA3FFF831DF10
2FE4F4CFFFF800
08F63005FFA000
00AFB8BFF90000
0004ACDA300000
ENDCHAR
STARTCHAR macron
ENCODING 175
SWIDTH 754 0
DWIDTH 15 0
BBX 8 4 5 11
BITMAP
489BBB70
BFFFFFF2
BFECDC90
11000000
ENDCHAR
STARTCHAR degree
ENCODING 176
SWIDTH 284 0
DWIDTH 6 0
BBX 7 7 1 10
BITMAP
00003000
0009F600
01BFF900
0AFDFF20
2FF7DF70
4FFFFF60
0AEEB400
ENDCHAR
STARTCHAR plusminus
ENCODING 177
SWIDTH 559 0
DWIDTH 11 0
BBX 13 15 -1 -1
BITMAP
0000001A400000
000000AFD00000
000001FFE00000
000004FFE00000
0089CEFFFDB300
01FFFFFFFFFF20
00BFFFFFB98500
00022FFF100000
00004FFC000000
00005FF7000000
00000450000000
267AABBBA60000
7FFFFFFFFF8000
3FFFFEEDCA4000
04410000000000
ENDCHAR
STARTCHAR twosuperior
ENCODING 178
SWIDTH 386 0
DWIDTH 8 0
BBX 8 8 1 7
BITMAP
01331000
5FFFF900
6FFFFF70
049FFF50
08FFE600
6FFFBBD3
8FFFFFF9
3DFEB861
ENDCHAR
STARTCHAR threesuperior
ENCODING 179
SWIDTH 366 0
DWIDTH 7 0
BBX 7 8 1 7
BITMAP
00123200
4DFFFE30
8FFFFF90
3AFFFD10
01EFFF40
016CFFC0
07FFFFB0
05FFD810
ENDCHAR
STARTCHAR acute
ENCODING 180
SWIDTH 754 0
DWIDTH 15 0
BBX 7 7 5 8
BITMAP
00006A00
0009FF70
009FFF90
08FFF700
2FFF5000
0EC30000
01000000
ENDCHAR
STARTCHAR mu
ENCODING 181
SWIDTH 569 0
DWIDTH 11 0
BBX 13 14 -1 -3
BITMAP
00000000008300
0016000001EA00
006F600003FE10
008FD00007FF20
00BFE0000DFE00
00EFB0007FF800
04FFA007FFE100
06FFD6CFFF5000
09FFFFFFF50000
0DFFFFFF700000
1FFDEE92000000
2FF50000000000
2EE10000000000
00100000000000
ENDCHAR
STARTCHAR paragraph
ENCODING 182
SWIDTH 729 0
DWIDTH 15 0
BBX 15 17 1 -1
BITMAP
0000000000010000
000002368ACFD500
0028CFFFFFFFFF70
09FFFFFFFFFFFFA0
9FFFFFFFF6EFE200
CFFFA4EFC1FFA000
AFF903FF94FF6000
5FFD68FF68FF3000
09FFFFFF6BFF1000
005EFFFFFFFD0000
00006FFFFFFF8000
00007FF9BFFA3000
00008FF4BFF10000
00009FE0DFF10000
0000EFC0AFF60000
0002FF705FF80000
0000250005610000
ENDCHAR
STARTCHAR periodcentered
ENCODING 183
SWIDTH 226 0
DWIDTH 5 0
BBX 5 4 0 5
BITMAP
09E700
1FFF30
1EFA00
012000
ENDCHAR
STARTCHAR cedilla
ENCODING 184
SWIDTH 754 0
DWIDTH 15 0
BBX 8 9 5 -7
BITMAP
00010000
007F9000
04FF3000
06FFE600
018CFF70
00018FF1
8DEFFFD1
3EFFEA20
00010000
ENDCHAR
STARTCHAR onesuperior
ENCODING 185
SWIDTH 206 0
DWIDTH 4 0
BBX 4 8 1 7
BITMAP
0300
1FC1
1FF5
0DF7
2FF6
7FF2
AFC0
7F60
ENDCHAR
STARTCHAR ordmasculine
ENCODING 186
SWIDTH 445 0
DWIDTH 9 0
BBX 9 9 0 4
BITMAP
00006EA000
0009FFF500
00BFFFF600
09FFFFFD00
4FFF59FF50
AFF729FF90
BFFFFFFF80
8FFFFFFC10
09EFDA5000
ENDCHAR
STARTCHAR guillemotright
ENCODING 187
SWIDTH 595 0
DWIDTH 12 0
BBX 12 10 -1 -1
BITMAP
034000350000
07FB205FB200
01EFE30EFE40
004EFE23EFF3
0004FF803FF9
005EFF84EFF9
07FFD56FFE51
4FFA13FFB200
5F9004FA0000
050000500000
ENDCHAR
STARTCHAR onequarter
ENCODING 188
SWIDTH 705 0
DWIDTH 14 0
BBX 14 16 0 -1
BITMAP
00300000028000
03FA00002EF000
03FF3000CFE000
00FF5009FFA000
04FF304FFC1000
09FE02EFD20000
0DF91DFE300000
0AF4AFF5006B00
0008FF9C90CF50
006FFB1FF2FF80
04FFD10EFFFFF3
0DFE200BFFFFC2
3FF800017FF600
5FF500003FF200
3FF200001EF500
02300000035000
ENDCHAR
STARTCHAR onehalf
ENCODING 189
SWIDTH 750 0
DWIDTH 15 0
BBX 14 16 0 -1
BITMAP
00300000028000
03FA00002EF000
03FF3000CFE000
00FF5009FFA000
04FF304FFC1000
09FE02EFD20000
0DF91DFE300000
0AF4AFF5132000
0008FF99FFFD20
006FFB0AFFFFC0
04FFD1026CFFB0
0DFE2001BFFB10
3FF80009FFEAC7
5FF5000CFFFFFD
3FF20007EFDA72
02300000000000
ENDCHAR
STARTCHAR threequarters
ENCODING 190
SWIDTH 818 0
DWIDTH 16 0
BBX 15 16 1 -1
BITMAP
0367760000006000
5FFFFF60000BF300
7FFFFF8000AFF400
08FFF9000AFFD100
04EFFC007FFC1000
2BBFFF27FFB10000
7FFFFB7FFB100000
39A845FFA002D300
00006FFB8C18F900
0007FFB0DF5CFA00
007FFB00DFFFFF40
04FFB000BFFFFC10
0BFE000019FF3000
1FFA000007FD0000
1FF4000006FE0000
0230000000530000
ENDCHAR
STARTCHAR questiondown
ENCODING 191
SWIDTH 556 0
DWIDTH 11 0
BBX 13 16 -2 -1
BITMAP
00000000018300
000000002EFC00
000000001FFF10
0000000008EB00
00000000000000
000000009A3000
0000002AFF6000
000018EFFE1000
0005DFFFE20000
01BFFFFB100000
0AFFFE50000000
1FFFF410023000
2FFFFFFEEFF300
2FFFFFFFFFF500
06BFFFFFFFA000
00013689960000
ENDCHAR
STARTCHAR Agrave
ENCODING 192
SWIDTH 702 0
DWIDTH 14 0
BBX 15 22 -1 -1
BITMAP
00000004B1000000
0000000EFE300000
0000002FFFE30000
00000002DFFE2000
000000001BFF9000
00000000008E7000
0000000032000000
00000001EFC20000
0000002CFFF70000
00001DFFFFF90000
00008FFFFFFB0000
0001EFFFEFFE0000
0007FFFC4FFF2000
000DFFE20EFF8300
006FFF935DFFFF90
00DFFFFFFFFFFFA0
05FFFCFFFFFFF900
0CFFC2EEB8DFF700
3FFF500004EFF800
4FFF10001CFFF300
0BF7000004FE5000
0010000000100000
ENDCHAR
STARTCHAR Aacute
ENCODING 193
SWIDTH 702 0
DWIDTH 14 0
BBX 15 23 -1 -1
BITMAP
00000000004C1000
0000000007FFA000
000000006FFFC000
00000005FFFA1000
0000000EFF800000
0000000BD5000000
0000000000000000
0000000032000000
00000001EFC20000
0000002CFFF70000
00001DFFFFF90000
00008FFFFFFB0000
0001EFFFEFFE0000
0007FFFC4FFF2000
000DFFE20EFF8300
006FFF935DFFFF90
00DFFFFFFFFFFFA0
05FFFCFFFFFFF900
0CFFC2EEB8DFF700
3FFF500004EFF800
4FFF10001CFFF300
0BF7000004FE5000
0010000000100000
ENDCHAR
STARTCHAR Acircumflex
ENCODING 194
SWIDTH 702 0
DWIDTH 14 0
BBX 15 22 -1 -1
BITMAP
0000000006300000
00000002CFF70000
0000002DFFFF8000
000003EFF5CFF900
000002FF601CF900
0000006500019100
0000000032000000
00000001EFC20000
0000002CFFF70000
00001DFFFFF90000
00008FFFFFFB0000
0001EFFFEFFE0000
0007FFFC4FFF2000
000DFFE20EFF8300
006FFF935DFFFF90
00DFFFFFFFFFFFA0
05FFFCFFFFFFF900
0CFFC2EEB8DFF700
3FFF500004EFF800
4FFF10001CFFF300
0BF7000004FE5000
0010000000100000
ENDCHAR
STARTCHAR Atilde
ENCODING 195
SWIDTH 702 0
DWIDTH 14 0
BBX 16 20 -1 -1
BITMAP
00000004CEC409D6
0000003FFFFFBFF4
000000CFDAFFFF90
000000AA307CC700
0000000032000000
00000001EFC20000
0000002CFFF70000
00001DFFFFF90000
00008FFFFFFB0000
0001EFFFEFFE0000
0007FFFC4FFF2000
000DFFE20EFF8300
006FFF935DFFFF90
00DFFFFFFFFFFFA0
05FFFCFFFFFFF900
0CFFC2EEB8DFF700
3FFF500004EFF800
4FFF10001CFFF300
0BF7000004FE5000
0010000000100000
ENDCHAR
STARTCHAR Adieresis
ENCODING 196
SWIDTH 702 0
DWIDTH 14 0
BBX 15 20 -1 -1
BITMAP
0000005910068300
000002FFC00EFF20
000004FFD00EFE10
0000008810018200
0000000032000000
00000001EFC20000
0000002CFFF70000
00001DFFFFF90000
00008FFFFFFB0000
0001EFFFEFFE0000
0007FFFC4FFF2000
000DFFE20EFF8300
006FFF935DFFFF90
00DFFFFFFFFFFFA0
05FFFCFFFFFFF900
0CFFC2EEB8DFF700
3FFF500004EFF800
4FFF10001CFFF300
0BF7000004FE5000
0010000000100000
ENDCHAR
STARTCHAR Aring
ENCODING 197
SWIDTH 702 0
DWIDTH 14 0
BBX 15 21 -1 -1
BITMAP
0000000000030000
0000000002CF2000
000000002DFF5000
00000001DFDFC000
00000006FE6FF300
00000008FFFFE200
00000003FFFA2000
0000002CFFF70000
00001DFFFFF90000
00008FFFFFFB0000
0001EFFFEFFE0000
0007FFFC4FFF2000
000DFFE20EFF8300
006FFF835DFFFF90
00DFFFFFFFFFFFA0
05FFFCFFFFFFF900
0CFFC2EEB8DFF700
3FFF500004EFF800
4FFF10001CFFF300
0BF7000004FE5000
0010000000100000
ENDCHAR
STARTCHAR AE
ENCODING 198
SWIDTH 1153 0
DWIDTH 23 0
BBX 26 16 -2 -1
BITMAP
00000000004100000000014520
0000000004FFB000159CEFFFE4
000000006EFFF15CFFFFFFFFF7
0000007FFFFFF2FFFFFFFFFD70
000003FFFFFFF1DFFFFD941000
00000CFFFEFFF28FFF10010000
00006FFFC4FFF34FFFEEFE3000
0001EFFE11FFF7BFFFFFFFF300
0009FFF646FFFFFFFFFFFF8100
004FFFFFFFFFFFFFF787720000
00DFFDFFFFFFFFFF8000000000
07FFF3BEC9BFFFFF65678CF700
1EFF800003CFFFFFFFFFFFFF40
3FFF20000CFFFEFFFFFFFFFB10
0CF6000005FE63DFFFEEC95000
00000000002000012100000000
ENDCHAR
STARTCHAR Ccedilla
ENCODING 199
SWIDTH 611 0
DWIDTH 12 0
BBX 12 22 0 -7
BITMAP
000000002400
00000018EFC1
000007EFFFFB
0005DFFFFFF9
007FFFFFFE91
07FFFFFB4000
4FFFFD600000
CFFFA1000000
FFFA00000000
EFF100000000
BFF200000000
6FFFC9876610
1CFFFFFFFFC0
02BFFFFFFFF3
0006FFEFED50
001DF8000000
003FFC500000
001AFFF80000
000006FF3000
04ABCEFF3000
03EFFFE60000
001442000000
ENDCHAR
STARTCHAR Egrave
ENCODING 200
SWIDTH 626 0
DWIDTH 13 0
BBX 13 23 0 -1
BITMAP
000004B1000000
00000EFE300000
00001FFFE30000
000002CFFE2000
0000001BFF9000
000000008E7000
00000000000000
00000000025400
000037ADFFFF90
01AEFFFFFFFFD0
08FFFFFFFFEB20
06FFFFEC620000
02EFF800000000
00CFFFEFF90000
04FFFFFFFFA000
0BFFFFFFFC3000
4FFFA877500000
AFFE1000000000
CFFB4577AEC200
AFFFFFFFFFFB00
6FFFFFFFFFF500
09FFFFEDB72000
00022100000000
ENDCHAR
STARTCHAR Eacute
ENCODING 201
SWIDTH 626 0
DWIDTH 13 0
BBX 13 22 0 -1
BITMAP
0000000006A000
000000009FF700
00000009FFF900
0000008FFF7000
000002FFF50000
000000EC300000
00000010025400
000037ADFFFF90
01AEFFFFFFFFD0
08FFFFFFFFEB20
06FFFFEC620000
02EFF800000000
00CFFFEFF90000
04FFFFFFFFA000
0BFFFFFFFC3000
4FFFA877500000
AFFE1000000000
CFFB4577AEC200
AFFFFFFFFFFB00
6FFFFFFFFFF500
09FFFFEDB72000
00022100000000
ENDCHAR
STARTCHAR Ecircumflex
ENCODING 202
SWIDTH 626 0
DWIDTH 13 0
BBX 13 22 0 -1
BITMAP
00000003600000
0000008FFC1000
000009FFFFD200
0000BFFA6FFE20
0000BFB107FE10
00002800006500
00000000025400
000037ADFFFF90
01AEFFFFFFFFD0
08FFFFFFFFEB20
06FFFFEC620000
02EFF800000000
00CFFFEFF90000
04FFFFFFFFA000
0BFFFFFFFC3000
4FFFA877500000
AFFE1000000000
CFFB4577AEC200
AFFFFFFFFFFB00
6FFFFFFFFFF500
09FFFFEDB72000
00022100000000
ENDCHAR
STARTCHAR Edieresis
ENCODING 203
SWIDTH 626 0
DWIDTH 13 0
BBX 13 20 0 -1
BITMAP
00002750028600
0000BFF408FF80
0000DFF408FF70
00004940006500
00000000025400
000037ADFFFF90
01AEFFFFFFFFD0
08FFFFFFFFEB20
06FFFFEC620000
02EFF800000000
00CFFFEFF90000
04FFFFFFFFA000
0BFFFFFFFC3000
4FFFA877500000
AFFE1000000000
CFFB4577AEC200
AFFFFFFFFFFB00
6FFFFFFFFFF500
09FFFFEDB72000
00022100000000
ENDCHAR
STARTCHAR Igrave
ENCODING 204
SWIDTH 515 0
DWIDTH 10 0
BBX 14 23 -1 -1
BITMAP
000001B5000000
000008FF800000
00000AFFF80000
0000008FFF7000
00000006FFF100
000000004DD000
00000000001000
00001366788630
000BFFFFFFFFF6
000AFFFFFFFFFD
0005FEDFFD8741
0000109FF70000
000000CFF30000
000002FFE00000
000006FF900000
00000DFF500000
00003FFF100000
0000AFFA000000
0003FFF9400000
7DFFFFFFF90000
9FFFFFFFFB0000
4FFDA996610000
02100000000000
ENDCHAR
STARTCHAR Iacute
ENCODING 205
SWIDTH 515 0
DWIDTH 10 0
BBX 14 23 -1 -1
BITMAP
000000000006A0
00000000009FF7
0000000009FFF9
000000008FFF70
00000002FFF500
00000000EC3000
00000000100000
00001366788630
000BFFFFFFFFF6
000AFFFFFFFFFD
0005FEDFFD8741
0000109FF70000
000000CFF30000
000002FFE00000
000006FF900000
00000DFF500000
00003FFF100000
0000AFFA000000
0003FFF9400000
7DFFFFFFF90000
9FFFFFFFFB0000
4FFDA996610000
02100000000000
ENDCHAR
STARTCHAR Icircumflex
ENCODING 206
SWIDTH 515 0
DWIDTH 10 0
BBX 14 23 -1 -1
BITMAP
00000000261000
00000005FFD300
0000006FFFFE30
000007FFD5EFF4
000007FD204EF3
00000091000370
00000000000000
00001366788630
000BFFFFFFFFF6
000AFFFFFFFFFD
0005FEDFFD8741
0000109FF70000
000000CFF30000
000002FFE00000
000006FF900000
00000DFF500000
00003FFF100000
0000AFFA000000
0003FFF9400000
7DFFFFFFF90000
9FFFFFFFFB0000
4FFDA996610000
02100000000000
ENDCHAR
STARTCHAR Idieresis
ENCODING 207
SWIDTH 515 0
DWIDTH 10 0
BBX 14 21 -1 -1
BITMAP
00000058000772
000005FF902FFD
000007FFA02FFC
00000297000371
00000000000000
00001366788630
000BFFFFFFFFF6
000AFFFFFFFFFD
0005FEDFFD8741
0000109FF70000
000000CFF30000
000002FFE00000
000006FF900000
00000DFF500000
00003FFF100000
0000AFFA000000
0003FFF9400000
7DFFFFFFF90000
9FFFFFFFFB0000
4FFDA996610000
02100000000000
ENDCHAR
STARTCHAR Eth
ENCODING 208
SWIDTH 656 0
DWIDTH 13 0
BBX 14 16 -1 -1
BITMAP
00015000000000
0005FE82000000
0003FFFFC30000
0006FFFFFF8000
0007FF5BFFFA10
0004FF3029FF90
18CFFFFA007FF4
3FFFFFFF500BFA
1FFFFFEA206FFC
087BFF404BFFF8
000DFF6AFFFFC1
003FFFFFFFFA10
005FFFFFFD5000
002FFFFC600000
000BFA40000000
00001000000000
ENDCHAR
STARTCHAR Ntilde
ENCODING 209
SWIDTH 684 0
DWIDTH 14 0
BBX 16 20 -1 0
BITMAP
00000001AEE805CC
0000000BFFFFBEFA
0000006FF8FFFFE1
0000006B604BCA20
0000000000000000
0000022000006100
00000AF80001FD30
00002FFF8007FFE0
00009FFFC00CFFF1
0001FFFFA00EFFA0
0008FFFF602FFF40
001EFFFF305FFF10
008FFFFF30AFFD00
01EFFFFF32FFFC00
07FFFFFF5CFFF900
1EFFFDFFFFFFF400
2FFFF4BFFFFFD000
1EFFA03EFFFF4000
08FF5004EFF60000
01CB100038400000
ENDCHAR
STARTCHAR Ograve
ENCODING 210
SWIDTH 744 0
DWIDTH 15 0
BBX 15 22 0 -1
BITMAP
0000000098000000
00000005FFB00000
00000007FFFA0000
000000006FFFA000
0000000004EFF300
00000000002BE100
000000004C401000
0000001BFFE40000
000001BFFFFC0000
00003EFFFFF90000
0004EFFFFFFD0000
003EFFFDBCFF6000
01DFFFA103FFD000
09FFF90000AFF600
2FFFA000002FFB00
8FFE1000001FFF10
BFF8000005DFFF20
BFFA5569DFFFFE00
8FFFFFFFFFFFE400
1DFFFFFFFFFA2000
02AFFFFDB7100000
0001132000000000
ENDCHAR
STARTCHAR Oacute
ENCODING 211
SWIDTH 744 0
DWIDTH 15 0
BBX 15 22 0 -1
BITMAP
0000000004C10000
000000007FFA0000
00000006FFFC0000
0000005FFFA10000
000000EFF8000000
000000BD50000000
000000004C400000
0000001BFFE40000
000001BFFFFC0000
00003EFFFFF90000
0004EFFFFFFD0000
003EFFFDBCFF6000
01DFFFA103FFD000
09FFF90000AFF600
2FFFA000002FFB00
8FFE1000001FFF10
BFF8000005DFFF20
BFFA5569DFFFFE00
8FFFFFFFFFFFE400
1DFFFFFFFFFA2000
02AFFFFDB7100000
0001132000000000
ENDCHAR
STARTCHAR Ocircumflex
ENCODING 212
SWIDTH 744 0
DWIDTH 15 0
BBX 15 22 0 -1
BITMAP
0000000006300000
00000002CFF70000
0000002DFFFF8000
000003EFF5CFF900
000002FF601CF900
0000006500019100
000000004C400000
0000001BFFE40000
000001BFFFFC0000
00003EFFFFF90000
0004EFFFFFFD0000
003EFFFDBCFF6000
01DFFFA103FFD000
09FFF90000AFF600
2FFFA000002FFB00
8FFE1000001FFF10
BFF8000005DFFF20
BFFA5569DFFFFE00
8FFFFFFFFFFFE400
1DFFFFFFFFFA2000
02AFFFFDB7100000
0001132000000000
ENDCHAR
STARTCHAR Otilde
ENCODING 213
SWIDTH 744 0
DWIDTH 15 0
BBX 15 21 0 -1
BITMAP
0000001AEE805CC0
000000BFFFFBEFA0
000006FF8FFFFE10
000006B604BCA200
0000000000000000
000000004C400000
0000001BFFE40000
000001BFFFFC0000
00003EFFFFF90000
0004EFFFFFFD0000
003EFFFDBCFF6000
01DFFFA103FFD000
09FFF90000AFF600
2FFFA000002FFB00
8FFE1000001FFF10
BFF8000005DFFF20
BFFA5569DFFFFE00
8FFFFFFFFFFFE400
1DFFFFFFFFFA2000
02AFFFFDB7100000
0001132000000000
ENDCHAR
STARTCHAR Odieresis
ENCODING 214
SWIDTH 744 0
DWIDTH 15 0
BBX 15 20 0 -1
BITMAP
0000005800077200
000005FF902FFD00
000007FFA02FFC00
0000029700037100
000000004C400000
0000001BFFE40000
000001BFFFFC0000
00003EFFFFF90000
0004EFFFFFFD0000
003EFFFDBCFF6000
01DFFFA103FFD000
09FFF90000AFF600
2FFFA000002FFB00
8FFE1000001FFF10
BFF8000005DFFF20
BFFA5569DFFFFE00
8FFFFFFFFFFFE400
1DFFFFFFFFFA2000
02AFFFFDB7100000
0001132000000000
ENDCHAR
STARTCHAR multiply
ENCODING 215
SWIDTH 490 0
DWIDTH 10 0
BBX 10 11 0 0
BITMAP
0220000020
09F70019F6
09FF63DFF9
03EFFFFF91
005FFFE400
008FFF3000
08FFFF9000
5FFD8FF500
CFD10CFC00
EF2005FE00
8A00007400
ENDCHAR
STARTCHAR Oslash
ENCODING 216
SWIDTH 744 0
DWIDTH 15 0
BBX 15 18 0 -3
BITMAP
000000004C404800
0000001BFFE7FF00
000001BFFFFFFF00
00003EFFFFFFFE00
0004EFFFFFFFF500
003EFFFDEFFF9000
01DFFFA4EFFFD000
09FFF92EFFEFF600
2FFFA0BFFD3FFB00
8FFE18FFE31FFF10
BFF87FFF55DFFF20
BFFCFFFEDFFFFE00
8FFFFFFFFFFFE400
1DFFFFFFFFFA2000
02FFFFFDB7100000
01FFF42000000000
00EFE10000000000
0038400000000000
ENDCHAR
STARTCHAR Ugrave
ENCODING 217
SWIDTH 695 0
DWIDTH 14 0
BBX 14 20 1 0
BITMAP
0002C300000000
000BFF50000000
000DFFF5000000
0001AFFF400000
000009FFC00000
0000006EA00500
00000000004F70
1B400000009FC0
5FE2000000CFF2
8FF8000000FFF5
AFFD000005FFF3
DFFB00000BFFF0
FFF700006FFF90
FFF60005FFFF20
FFF7018FFFF800
EFFDAEFFFF8100
9FFFFFFFF90000
5FFFFFFFC10000
0CFFFFF8000000
02ACC820000000
ENDCHAR
STARTCHAR Uacute
ENCODING 218
SWIDTH 695 0
DWIDTH 14 0
BBX 14 21 1 0
BITMAP
0000000006A000
000000009FF700
00000009FFF900
0000008FFF7000
000002FFF50000
000000EC300000
00000010000500
00000000004F70
1B400000009FC0
5FE2000000CFF2
8FF8000000FFF5
AFFD000005FFF3
DFFB00000BFFF0
FFF700006FFF90
FFF60005FFFF20
FFF7018FFFF800
EFFDAEFFFF8100
9FFFFFFFF90000
5FFFFFFFC10000
0CFFFFF8000000
02ACC820000000
ENDCHAR
STARTCHAR Ucircumflex
ENCODING 219
SWIDTH 695 0
DWIDTH 14 0
BBX 14 21 1 0
BITMAP
00000026100000
000005FFD30000
00006FFFFE3000
0007FFD5EFF400
0007FD204EF300
00009100037000
00000000000500
00000000004F70
1B400000009FC0
5FE2000000CFF2
8FF8000000FFF5
AFFD000005FFF3
DFFB00000BFFF0
FFF700006FFF90
FFF60005FFFF20
FFF7018FFFF800
EFFDAEFFFF8100
9FFFFFFFF90000
5FFFFFFFC10000
0CFFFFF8000000
02ACC820000000
ENDCHAR
STARTCHAR Udieresis
ENCODING 220
SWIDTH 695 0
DWIDTH 14 0
BBX 14 19 1 0
BITMAP
00016700187100
0008FF605FFB00
000AFF705FFA00
00039600046000
00000000000500
00000000004F70
1B400000009FC0
5FE2000000CFF2
8FF8000000FFF5
AFFD000005FFF3
DFFB00000BFFF0
FFF700006FFF90
FFF60005FFFF20
FFF7018FFFF800
EFFDAEFFFF8100
9FFFFFFFF90000
5FFFFFFFC10000
0CFFFFF8000000
02ACC820000000
ENDCHAR
STARTCHAR Yacute
ENCODING 221
SWIDTH 493 0
DWIDTH 10 0
BBX 12 23 0 -1
BITMAP
000000000980
00000001BFF4
0000001BFFF6
000000AFFE50
000004FFE300
000002FB2000
000000100000
055000000680
0DFC1000BFFA
0BFF600AFFFE
0AFF907FFFE4
07FFC3EFFF40
05FFFDFFF600
01FFFFFF9000
00AFFFFE1000
002EFFF70000
003FFFC00000
00BFFF300000
03FFF9000000
0BFFF2000000
1FFF80000000
0DFE10000000
028400000000
ENDCHAR
STARTCHAR Thorn
ENCODING 222
SWIDTH 680 0
DWIDTH 14 0
BBX 14 16 0 -1
BITMAP
00043000000000
005FA000000000
00BFF200000000
01FFFDDBA85000
04FFFFFFFFFD40
07FFFFFFFFFFF3
0BFFE0001AFFF8
0FFFB0004EFFFA
3FFF804AFFFFE3
4FFFBCFFFFFC20
5FFFFFFFFC6000
6FFFFFD8200000
3FFF9400000000
0EFF2000000000
08FC0000000000
00200000000000
ENDCHAR
STARTCHAR germandbls
ENCODING 223
SWIDTH 931 0
DWIDTH 19 0
BBX 21 13 0 -1
BITMAP
000027BEFE70016ADFFB00
016CFFFFFFF6AFFFFFFF70
3EFFFFFEEEFFFFFFEFEF90
AFFFE51005FFFF92000000
BFFFFF7006FFFFFA200000
3BFFFFF5019EFFFFA00000
000249EE1000137DF50000
000001CF50000008FA0000
00003BFF3000018FF80000
057BFFFA0036AEFFE10000
0FFFFFA100AFFFFD300000
0DFFC500008FFE81000000
0352000000153000000000
ENDCHAR
STARTCHAR agrave
ENCODING 224
SWIDTH 581 0
DWIDTH 12 0
BBX 13 20 -1 -1
BITMAP
00000098000000
000005FFB00000
000007FFFA0000
0000006FFFA000
00000004EFF300
000000002BE100
00000000001000
0000001C820000
000001BFF90000
00009EFFFB0000
0004FFFFFE0000
000BFFECFF2000
002FFF47FF6000
00AFF916FFEC30
02FFFFFFFFFF50
09FFBFFFFFF500
1EFD18858FF500
5FF80004EFF400
1EE30000DF8000
01100000120000
ENDCHAR
STARTCHAR aacute
ENCODING 225
SWIDTH 581 0
DWIDTH 12 0
BBX 13 20 -1 -1
BITMAP
000000001B5000
00000002DFF100
0000002DFFF300
000001DFFD3000
000008FFC20000
000005F9100000
00000010000000
0000001C820000
000001BFF90000
00009EFFFB0000
0004FFFFFE0000
000BFFECFF2000
002FFF47FF6000
00AFF916FFEC30
02FFFFFFFFFF50
09FFBFFFFFF500
1EFD18858FF500
5FF80004EFF400
1EE30000DF8000
01100000120000
ENDCHAR
STARTCHAR acircumflex
ENCODING 226
SWIDTH 581 0
DWIDTH 12 0
BBX 13 19 -1 -1
BITMAP
00000003600000
0000008FFC1000
000009FFFFD200
0000AFFB6FFE20
0000AFB107FE10
00002800006500
0000001C820000
000001BFF90000
00009EFFFB0000
0004FFFFFE0000
000BFFECFF2000
002FFF47FF6000
00AFF916FFEC30
02FFFFFFFFFF50
09FFBFFFFFF500
1EFD18858FF500
5FF80004EFF400
1EE30000DF8000
01100000120000
ENDCHAR
STARTCHAR atilde
ENCODING 227
SWIDTH 581 0
DWIDTH 12 0
BBX 14 18 -1 -1
BITMAP
000004CEC409D6
00003FFFFFBFF4
0000CFDAFFFF90
0000AA307CC700
00000000000000
0000001C820000
000001BFF90000
00009EFFFB0000
0004FFFFFE0000
000BFFECFF2000
002FFF47FF6000
00AFF916FFEC30
02FFFFFFFFFF50
09FFBFFFFFF500
1EFD18858FF500
5FF80004EFF400
1EE30000DF8000
01100000120000
ENDCHAR
STARTCHAR adieresis
ENCODING 228
SWIDTH 581 0
DWIDTH 12 0
BBX 13 18 -1 -1
BITMAP
00000580007720
00005FF902FFE0
00007FFA02FFC0
00001870003710
00000000000000
0000001C820000
000001BFF90000
00009EFFFB0000
0004FFFFFE0000
000BFFECFF2000
002FFF47FF6000
00AFF916FFEC30
02FFFFFFFFFF50
09FFBFFFFFF500
1EFD18858FF500
5FF80004EFF400
1EE30000DF8000
01100000120000
ENDCHAR
STARTCHAR aring
ENCODING 229
SWIDTH 581 0
DWIDTH 12 0
BBX 13 18 -1 -1
BITMAP
00000000061000
00000001AF9000
0000001CFFC000
000000AFCDF500
000001FF9DF900
000001FFFFF500
000001CFFC2000
00009EFFFB0000
0004FFFFFE0000
000BFFECFF2000
002FFF47FF6000
00AFF916FFEC30
02FFFFFFFFFF50
09FFBFFFFFF500
1EFD18858FF500
5FF80004EFF400
1EE30000DF8000
01100000120000
ENDCHAR
STARTCHAR ae
ENCODING 230
SWIDTH 948 0
DWIDTH 19 0
BBX 22 13 -2 -1
BITMAP
000000007B60000369BCA1
00000007FFF05BEFFFFFF6
000006EFFFF3FFFFFFFD80
00002FFFFFF2FFFCA51000
0000CFFDDFF2AFF7563000
0005FFE2AFF3CFFFFFE400
001EFF52AFFEFFFFFFE400
009FFFFFFFFFFF98861000
03FFDDFFFFFFFC00003200
0CFF35866FFFFD9BCEFD20
3FFA0004DFFFFFFFFFFF40
1EE30000EF97FFFFFEA400
0110000022001331100000
ENDCHAR
STARTCHAR ccedilla
ENCODING 231
SWIDTH 513 0
DWIDTH 10 0
BBX 10 18 0 -6
BITMAP
0000005C90
00004BFFFA
001AFFFFFA
03DFFFFD81
2DFFFD4000
AFFF710000
FFF4000000
EF90000000
BFB2000000
6FFFECBB80
09FFFFFFF5
005DFFFFB1
002EE32100
006FFA2000
0018DFE200
00113CF800
07FFFFF400
009AA82000
ENDCHAR
STARTCHAR egrave
ENCODING 232
SWIDTH 521 0
DWIDTH 10 0
BBX 11 20 0 -1
BITMAP
000980000000
005FFB000000
007FFFB00000
0006FFFA0000
00004EFF3000
000002BE1000
000000010000
0000157ACC40
028CFFFFFFD0
0BFFFFFFEB30
09FFEA830000
03FFB5650000
05FFFFFF9000
0CFFFFFFA000
5FFD88730000
BFF400013000
BFFAABCFF700
9FFFFFFFFB00
2DFFFFFC8100
003431000000
ENDCHAR
STARTCHAR eacute
ENCODING 233
SWIDTH 521 0
DWIDTH 10 0
BBX 11 20 0 -1
BITMAP
00000002C300
0000004EFD00
000004EFFE10
00003EFFC200
0000AFFB1000
00008E700000
000000000000
0000157ACC40
028CFFFFFFD0
0BFFFFFFEB30
09FFEA830000
03FFB5650000
05FFFFFF9000
0CFFFFFFA000
5FFD88730000
BFF400013000
BFFAABCFF700
9FFFFFFFFB00
2DFFFFFC8100
003431000000
ENDCHAR
STARTCHAR ecircumflex
ENCODING 234
SWIDTH 521 0
DWIDTH 10 0
BBX 12 19 0 -1
BITMAP
000000261000
000006FFD300
00006FFFFE30
0008FFD5EFE4
0008FD205FF3
000091000370
0000157ACC40
028CFFFFFFD0
0BFFFFFFEB30
09FFEA830000
03FFB5650000
05FFFFFF9000
0CFFFFFFA000
5FFD88730000
BFF400013000
BFFAABCFF700
9FFFFFFFFB00
2DFFFFFC8100
003431000000
ENDCHAR
STARTCHAR edieresis
ENCODING 235
SWIDTH 521 0
DWIDTH 10 0
BBX 12 18 0 -1
BITMAP
000058000772
0005FF902FFE
0007FFA02FFC
000187000371
000000000000
0000157ACC40
028CFFFFFFD0
0BFFFFFFEB30
09FFEA830000
03FFB5650000
05FFFFFF9000
0CFFFFFFA000
5FFD88730000
BFF400013000
BFFAABCFF700
9FFFFFFFFB00
2DFFFFFC8100
003431000000
ENDCHAR
STARTCHAR igrave
ENCODING 236
SWIDTH 320 0
DWIDTH 6 0
BBX 7 20 1 -1
BITMAP
06A00000
2FFD1000
4FFFD100
04EFFC10
002DFF60
0001AF40
00000100
01A70000
06FD0000
0AFF2000
0DFF4000
2FFE0000
6FF90000
9FF50000
BFF30000
CFF10000
CFF10000
8FF20000
3FE10000
03100000
ENDCHAR
STARTCHAR iacute
ENCODING 237
SWIDTH 320 0
DWIDTH 6 0
BBX 10 20 1 -1
BITMAP
0000000980
000001BFF4
00001BFFF6
0000AFFE50
0004FFE300
0002FB2000
0000100000
01A7000000
06FD000000
0AFF200000
0DFF400000
2FFE000000
6FF9000000
9FF5000000
BFF3000000
CFF1000000
CFF1000000
8FF2000000
3FE1000000
0310000000
ENDCHAR
STARTCHAR icircumflex
ENCODING 238
SWIDTH 320 0
DWIDTH 6 0
BBX 9 20 0 -1
BITMAP
0000540000
001BFF9000
01CFFFFB10
1DFF89FFC0
0DF900AFC0
0470000830
0000000000
001A700000
006FD00000
00AFF20000
00DFF40000
02FFE00000
06FF900000
09FF500000
0BFF300000
0CFF100000
0CFF100000
08FF200000
03FE100000
0031000000
ENDCHAR
STARTCHAR idieresis
ENCODING 239
SWIDTH 320 0
DWIDTH 6 0
BBX 10 18 0 -1
BITMAP
0591006830
2FFC00EFF2
4FFD00EFE1
0881001820
0000000000
001A700000
006FD00000
00AFF20000
00DFF40000
02FFE00000
06FF900000
09FF500000
0BFF300000
0CFF100000
0CFF100000
08FF200000
03FE100000
0031000000
ENDCHAR
STARTCHAR eth
ENCODING 240
SWIDTH 541 0
DWIDTH 11 0
BBX 12 13 -1 -1
BITMAP
000DA3000000
000EFFD60000
002EFFFFA100
001FF39EFD20
026EF811BFB0
6FFFFFB00BF4
5FFFFFA02DF7
198FF217EFF4
008FF8DFFF80
00CFFFFFE600
00CFFFE91000
007FD7100000
000300000000
ENDCHAR
STARTCHAR ntilde
ENCODING 241
SWIDTH 564 0
DWIDTH 11 0
BBX 15 18 -1 -1
BITMAP
0000001AEE805CB0
000000CFFFFBEF90
000006FF8FFFFE10
000006B604BCA200
0000000000000000
00004A2000C60000
0000BFE202FF7000
0003FFF708FFA000
000AFFF50AFF4000
002FFFE10DFE0000
00AFFFE02FFB0000
02FFFFE08FFA0000
09FFFFF4FFF70000
2FFFDEFFFFF20000
2FFF47FFFFA00000
0CFD00BFFD100000
04F70008A2000000
0010000000000000
ENDCHAR
STARTCHAR ograve
ENCODING 242
SWIDTH 628 0
DWIDTH 13 0
BBX 12 20 0 -1
BITMAP
000001B50000
000008FF8000
00000AFFF800
0000008FFF70
00000006FFF0
000000004DD0
000000021010
0000007EE200
000009FFFD00
0001CFFFFB00
001CFFFFFE10
00CFFE75EF80
09FFE3008FE1
2FFE20001EF6
8FF600000CFB
CFE00004BFFC
BFFB9BEFFFF7
5FFFFFFFFF70
07EFFFFC6100
001333000000
ENDCHAR
STARTCHAR oacute
ENCODING 243
SWIDTH 628 0
DWIDTH 13 0
BBX 12 20 0 -1
BITMAP
000000006A00
00000009FF70
0000009FFF90
000008FFF700
00001FFF5000
00000EC30000
000001021000
0000007EE200
000009FFFD00
0001CFFFFB00
001CFFFFFE10
00CFFE75EF80
09FFE3008FE1
2FFE20001EF6
8FF600000CFB
CFE00004BFFC
BFFB9BEFFFF7
5FFFFFFFFF70
07EFFFFC6100
001333000000
ENDCHAR
STARTCHAR ocircumflex
ENCODING 244
SWIDTH 628 0
DWIDTH 13 0
BBX 13 20 0 -1
BITMAP
00000002610000
0000005FFD3000
000006FFFFE300
00007FFD5EFF40
00007FD204EF30
00000910003700
00000002100000
0000007EE20000
000009FFFD0000
0001CFFFFB0000
001CFFFFFE1000
00CFFE75EF8000
09FFE3008FE100
2FFE20001EF600
8FF600000CFB00
CFE00004BFFC00
BFFB9BEFFFF700
5FFFFFFFFF7000
07EFFFFC610000
00133300000000
ENDCHAR
STARTCHAR otilde
ENCODING 245
SWIDTH 628 0
DWIDTH 13 0
BBX 14 18 0 -1
BITMAP
000001AEE805CB
00000CFFFFBEF9
00006FF8FFFFE1
00006B604BCA20
00000002100000
0000007EE20000
000009FFFD0000
0001CFFFFB0000
001CFFFFFE1000
00CFFE75EF8000
09FFE3008FE100
2FFE20001EF600
8FF600000CFB00
CFE00004BFFC00
BFFB9BEFFFF700
5FFFFFFFFF7000
07EFFFFC610000
00133300000000
ENDCHAR
STARTCHAR odieresis
ENCODING 246
SWIDTH 628 0
DWIDTH 13 0
BBX 13 18 0 -1
BITMAP
00000580007720
00005FF902FFD0
00007FFA02FFC0
00002970003710
00000002100000
0000007EE20000
000009FFFD0000
0001CFFFFB0000
001CFFFFFE1000
00CFFE75EF8000
09FFE3008FE100
2FFE20001EF600
8FF600000CFB00
CFE00004BFFC00
BFFB9BEFFFF700
5FFFFFFFFF7000
07EFFFFC610000
00133300000000
ENDCHAR
STARTCHAR divide
ENCODING 247
SWIDTH 559 0
DWIDTH 11 0
BBX 11 13 0 -1
BITMAP
000007600000
00006FF60000
00007FFA0000
00005EC40000
000001210000
7ADFFFFFE700
CFFFFFFFFF50
6FEB99886300
010230000000
001DFE100000
004FFE000000
000DF8000000
000130000000
ENDCHAR
STARTCHAR oslash
ENCODING 248
SWIDTH 632 0
DWIDTH 13 0
BBX 12 16 0 -3
BITMAP
000000021001
0000006EE3AB
000008FFFFFC
0001CFFFFFFB
001CFFFFFFE2
00CFFF9FFF90
08FFE4BFFFF2
2FFE38FF8EF8
8FF75FFC0BFC
BFE4FFD4AFFE
BFFEFFFFFFF9
6FFFFFFFFF90
09FFFFFD8300
05FF84100000
03FF30000000
003400000000
ENDCHAR
STARTCHAR ugrave
ENCODING 249
SWIDTH 584 0
DWIDTH 12 0
BBX 12 19 1 0
BITMAP
0006A0000000
002FFD100000
004FFFD10000
0004EFFC1000
00002DFF6000
000001AF4000
000000010000
000000000C30
170000003FA0
7F8000007FE0
9FE10000AFF2
CFF30001FFE0
EFE00009FFA0
FFD0006FFF30
FFE018FFFA00
EFFBFFFF9100
8FFFFFFC0000
3FFFFFB10000
07DEB5000000
ENDCHAR
STARTCHAR uacute
ENCODING 250
SWIDTH 584 0
DWIDTH 12 0
BBX 12 18 1 0
BITMAP
000000009800
0000001BFF40
000001BFFF60
00000AFFE500
00004FFE3000
00002FB20000
000001000C30
170000003FA0
7F8000007FE0
9FE10000AFF2
CFF30001FFE0
EFE00009FFA0
FFD0006FFF30
FFE018FFFA00
EFFBFFFF9100
8FFFFFFC0000
3FFFFFB10000
07DEB5000000
ENDCHAR
STARTCHAR ucircumflex
ENCODING 251
SWIDTH 584 0
DWIDTH 12 0
BBX 12 19 1 0
BITMAP
000001620000
00003EFE5000
0004EFFFF600
005FFE4DFF70
004FE402EF70
000830002900
000000000000
000000000C30
170000003FA0
7F8000007FE0
9FE10000AFF2
CFF30001FFE0
EFE00009FFA0
FFD0006FFF30
FFE018FFFA00
EFFBFFFF9100
8FFFFFFC0000
3FFFFFB10000
07DEB5000000
ENDCHAR
STARTCHAR udieresis
ENCODING 252
SWIDTH 584 0
DWIDTH 12 0
BBX 12 17 1 0
BITMAP
000580007720
005FF902FFE0
007FFA02FFC0
001870003710
000000000000
000000000C30
170000003FA0
7F8000007FE0
9FE10000AFF2
CFF30001FFE0
EFE00009FFA0
FFD0006FFF30
FFE018FFFA00
EFFBFFFF9100
8FFFFFFC0000
3FFFFFB10000
07DEB5000000
ENDCHAR
STARTCHAR yacute
ENCODING 253
SWIDTH 400 0
DWIDTH 8 0
BBX 11 21 0 -1
BITMAP
000000004C10
00000006FFA0
0000006FFFC0
000005FFFA10
00000DFF8000
00000BD50000
000000000000
000000001000
0CB20008F700
0DFB009FFF20
0BFF06FFF700
09FF5EFF8000
06FFFFFA1000
01FFFFE10000
008FFF600000
008FFC000000
02FFF3000000
08FFA0000000
1FFE20000000
1EF900000000
039100000000
ENDCHAR
STARTCHAR thorn
ENCODING 254
SWIDTH 579 0
DWIDTH 12 0
BBX 12 14 0 -1
BITMAP
000300000000
009F10000000
01FF71000000
05FFFFFDB610
08FFFFFFFFC1
0CFF8557FFF7
1FFF1005FFFA
4FFD04BFFFE3
5FFECFFFFB30
6FFFFFFA4000
5FFEB5100000
1FF800000000
0BF500000000
001000000000
ENDCHAR
STARTCHAR ydieresis
ENCODING 255
SWIDTH 400 0
DWIDTH 8 0
BBX 12 19 0 -1
BITMAP
000491006840
002FFC00EFF2
004FFD00EFE1
000881001820
000000000000
000000001000
0CB20008F700
0DFB009FFF20
0BFF06FFF700
09FF5EFF8000
06FFFFFA1000
01FFFFE10000
008FFF600000
008FFC000000
02FFF3000000
08FFA0000000
1FFE20000000
1EF900000000
039100000000
ENDCHAR
STARTCHAR dotlessi
ENCODING 305
SWIDTH 320 0
DWIDTH 6 0
BBX 5 13 1 -1
BITMAP
01A700
06FD00
0AFF20
0DFF40
2FFE00
6FF900
9FF500
BFF300
CFF100
CFF100
8FF200
3FE100
031000
ENDCHAR
STARTCHAR Lslash
ENCODING 321
SWIDTH 632 0
DWIDTH 13 0
BBX 15 16 -2 -1
BITMAP
0000046100000000
00000BFF70000000
00001EFFC0000000
00005FFF70000000
0000AFFF20000000
0001FFFFC7000000
006BFFFFFE300000
8EFFFFFD82000000
BFFFFF9000000000
2CDFFF3000000000
00AFFE0000100000
00CFFE8CEFFE8200
00AFFFFFFFFFFE00
004FFFFFFFFFFF30
000AFFFC86567400
0000231000000000
ENDCHAR
STARTCHAR lslash
ENCODING 322
SWIDTH 533 0
DWIDTH 11 0
BBX 13 13 -2 -1
BITMAP
00002EA3000000
00006FFA000000
0000BFF7000000
0001FFF1000000
0007FFFFA10000
15CFFFFFA10000
DFFFFE82000000
8FFFF900000000
03BFF513441000
00CFFDEFFFE800
008FFFFFFFFF20
001EFFEB98A810
00014300000000
ENDCHAR
STARTCHAR OE
ENCODING 338
SWIDTH 1212 0
DWIDTH 24 0
BBX 25 16 0 -1
BITMAP
000000004C4000000000135300
0000001BFFE4000148BEFFFE60
000001BFFFFC03BFFFFFFFFF90
00003EFFFFF90CFFFFFFFFE910
0004EFFFFFFD0AFFFFDA520000
003EFFFDBCFF65FFF400100000
01DFFFA103FFD2FFFEEFF50000
09FFF90000AFFDFFFFFFFF6000
2FFFA000002FFFFFFFFFFA1000
8FFE1000001FFFFF8877300000
BFF8000005DFFFFA0000000000
BFFA5569DFFFFFF84578BF9100
8FFFFFFFFFFFFFFFFFFFFFF700
1DFFFFFFFFFABFFFFFFFFFD200
02AFFFFDB7102BFFFFEDA61000
00011320000000122000000000
ENDCHAR
STARTCHAR oe
ENCODING 339
SWIDTH 1010 0
DWIDTH 20 0
BBX 21 14 0 -1
BITMAP
0000000210000000000000
0000007EE20000268ACB20
000009FFFD03ADFFFFFFA0
0001CFFFFB0EFFFFFFE910
002CFFFFFE1CFFDA620000
01CFFE75EF86FF95640000
09FFE3008FEAFFFFFF6000
2FFE20001EFFFFFFFF7000
8FF600000CFFFB88720000
CFE00004BFFFF200023000
BFFBABEFFFFFEAACDFF500
5FFFFFFFFFEFFFFFFFF800
07EFFFEC624EFFFFEB6000
0013330000013321000000
ENDCHAR
STARTCHAR Scaron
ENCODING 352
SWIDTH 576 0
DWIDTH 12 0
BBX 14 23 0 -1
BITMAP
00000400001400
00005FA002CE20
00009FFA1DFF60
00001AFFEFF700
000000AFFF6000
00000006B40000
00000000000000
00000003588720
000149DFFFFFC0
017EFFFFFFFFF6
2EFFFFFFEFFFF8
AFFFFE62010010
BFFFFFC4000000
8FFFFFFF700000
048ADEFFD10000
0000006DFA0000
0000000AFE0000
0000019FFD0000
00039EFFF70000
0CFFFFFFA00000
0DFFFFE7000000
0AFFE820000000
01320000000000
ENDCHAR
STARTCHAR scaron
ENCODING 353
SWIDTH 463 0
DWIDTH 9 0
BBX 12 21 0 -1
BITMAP
000400001300
005FA002CE20
00AFF91DFF50
001BFFEFF700
0000AFFF6000
000006B40000
000000000000
000000000000
000027BEFE70
016CFFFFFFF2
3EFFFFFEFEF5
AFFFE5100000
BFFFFF700000
3BFFFFF50000
000249EE1000
000001CF5000
00003BFF3000
057BFFFA0000
0FFFFFA10000
0DFFC5000000
035200000000
ENDCHAR
STARTCHAR Ydieresis
ENCODING 376
SWIDTH 493 0
DWIDTH 10 0
BBX 12 21 0 -1
BITMAP
000058000772
0005FF902FFE
0007FFA02FFC
000187000371
000000000000
055000000680
0DFC1000BFFA
0BFF600AFFFE
0AFF907FFFE4
07FFC3EFFF40
05FFFDFFF600
01FFFFFF9000
00AFFFFE1000
002EFFF70000
003FFFC00000
00BFFF300000
03FFF9000000
0BFFF2000000
1FFF80000000
0DFE10000000
028400000000
ENDCHAR
STARTCHAR Zcaron
ENCODING 381
SWIDTH 664 0
DWIDTH 13 0
BBX 16 23 -1 -1
BITMAP
0000000040000220
00000008F7004ED0
0000000DFF63EFF2
00000002DFFEFE50
000000001CFFE400
00000000018A2000
0000000000000000
0000235433323100
0001FFFFFFFFFE20
0000FFFFFFFFFFC0
00008FFFFFFFFFB0
000003213EFFFE30
00000004EFFFB100
0000019FFFFA0000
00005EFFFFA00000
0018FFFFE6000000
02CFFFFB20000000
0BFFFF7000161000
1FFFF4038BFFC300
3FFFFDEFFFFFF600
1EFFFFFFFFFD6000
05FFFFFED9400000
004AC96200000000
ENDCHAR
STARTCHAR zcaron
ENCODING 382
SWIDTH 547 0
DWIDTH 11 0
BBX 14 21 -1 -1
BITMAP
00000040000140
000005FA002CE2
000009FFA1DFF6
000001AFFEFF70
0000000AFFF600
000000006B4000
00000000000000
00000000000000
0005BDCBBAB800
0008FFFFFFFF50
0003FFFEFFFF60
00001109FFFA00
000001BFFF6000
00006EFFF50000
001AFFFE400000
04EFFFA1000000
0DFFE600274000
2FFF859EFFD400
2FFFFFFFFFC200
09FFFFEE940000
006CA720000000
ENDCHAR
STARTCHAR circumflex
ENCODING 710
SWIDTH 754 0
DWIDTH 15 0
BBX 9 6 4 10
BITMAP
0000630000
002CFF7000
02DFFFF800
3EFF5CFF90
2FF601CF90
0650001910
ENDCHAR
STARTCHAR caron
ENCODING 711
SWIDTH 754 0
DWIDTH 15 0
BBX 9 6 4 10
BITMAP
0320000400
1ED3008F70
4FFE28FFB0
06FFEFFC10
005FFFB100
0003A70000
ENDCHAR
STARTCHAR breve
ENCODING 728
SWIDTH 754 0
DWIDTH 15 0
BBX 9 5 4 11
BITMAP
0320000400
1DD2008F60
4FFE9BFFB0
08FFFFFD30
004AEC8100
ENDCHAR
STARTCHAR dotaccent
ENCODING 729
SWIDTH 754 0
DWIDTH 15 0
BBX 4 4 7 11
BITMAP
2740
CFE3
DFF4
5940
ENDCHAR
STARTCHAR ring
ENCODING 730
SWIDTH 754 0
DWIDTH 15 0
BBX 7 7 5 10
BITMAP
00003000
0007F800
00AFFB00
08FEEF40
1EF8CF90
2FFFFF70
08EEB500
ENDCHAR
STARTCHAR ogonek
ENCODING 731
SWIDTH 754 0
DWIDTH 15 0
BBX 9 7 5 -6
BITMAP
0490000000
0DD0000000
1FE0000000
0DF7200000
07FFFFED20
006EFFFF40
0000245200
ENDCHAR
STARTCHAR tilde
ENCODING 732
SWIDTH 754 0
DWIDTH 15 0
BBX 10 4 4 11
BITMAP
04CEC409D6
3FFFFFBFF4
CFDAFFFF90
AA307CC700
ENDCHAR
STARTCHAR hungarumlaut
ENCODING 733
SWIDTH 754 0
DWIDTH 15 0
BBX 12 7 3 8
BITMAP
0002C3001B50
004EFD02DFF1
04EFFE3DFFF3
3EFFC3DFFD30
BFFA18FFC200
8E7005F91000
000000100000
ENDCHAR
STARTCHAR endash
ENCODING 8211
SWIDTH 588 0
DWIDTH 12 0
BBX 11 4 0 3
BITMAP
368ABBCB9400
AFFFFFFFFF60
6FFFEEEDC930
053100000000
ENDCHAR
STARTCHAR emdash
ENCODING 8212
SWIDTH 878 0
DWIDTH 18 0
BBX 17 4 0 3
BITMAP
49AACDDDDEEDCA7100
8FFFFFFFFFFFFFFD30
2DFFEDCCCCBBBA9610
002100000000000000
ENDCHAR
STARTCHAR quoteleft
ENCODING 8216
SWIDTH 203 0
DWIDTH 4 0
BBX 6 7 1 9
BITMAP
000100
00CFA1
07FFF3
0CFF90
2FFE10
2FF900
09D500
ENDCHAR
STARTCHAR quoteright
ENCODING 8217
SWIDTH 199 0
DWIDTH 4 0
BBX 6 8 1 8
BITMAP
001000
00CD60
02FFF1
06FFE0
0CFF80
6FFE10
3CE400
001000
ENDCHAR
STARTCHAR quotesinglbase
ENCODING 8218
SWIDTH 204 0
DWIDTH 4 0
BBX 6 7 -3 -4
BITMAP
004A40
00AFF5
00EFF6
04FFF2
0CFF80
1DFD10
016100
ENDCHAR
STARTCHAR quotedblleft
ENCODING 8220
SWIDTH 410 0
DWIDTH 8 0
BBX 10 8 1 8
BITMAP
0011000200
02EE70BFB3
09FFC5FFF4
0DFF5AFFB0
1FFD1EFF30
2FF80FFB00
0EF608D700
0141000000
ENDCHAR
STARTCHAR quotedblright
ENCODING 8221
SWIDTH 425 0
DWIDTH 9 0
BBX 10 8 1 8
BITMAP
0010000100
00CD603EB3
02FFF18FF9
06FFE0EFF5
0CFF87FFD1
6FFE4FFF40
3CE41CE600
0010001000
ENDCHAR
STARTCHAR quotedblbase
ENCODING 8222
SWIDTH 430 0
DWIDTH 9 0
BBX 10 7 -3 -4
BITMAP
004A400793
00AFF51FFE
00EFF66FFD
04FFF2DFF7
0CFF88FFC0
1DFD1CFE30
0161006200
ENDCHAR
STARTCHAR bullet
ENCODING 8226
SWIDTH 299 0
DWIDTH 6 0
BBX 5 6 0 3
BITMAP
002000
0AFC10
4FFFA0
3FFFA0
2FFF40
022000
ENDCHAR
STARTCHAR ellipsis
ENCODING 8230
SWIDTH 768 0
DWIDTH 15 0
BBX 15 5 -1 -1
BITMAP
0100000000001000
1CD8007EB202EC60
7FFD01FFF40AFFA0
3FF800BFE006FF50
0560002720006400
ENDCHAR
STARTCHAR perthousand
ENCODING 8240
SWIDTH 889 0
DWIDTH 18 0
BBX 18 15 0 0
BITMAP
000021000000000000
0005EA000006E10000
007FFD00006FE00000
05FFEF5006FFA00000
0DF9BFB05FFB100000
0FFFFFA5FFA0000000
08FFC76FF900000000
000005FF9000000000
00006FFA0730000650
0007FF91BFB0008FE0
008FF81CFFE10AFFF3
05FF809FCCF76FDAFA
0DFC00FFBEFBCFCDFE
2FF700DFFFF5BFFFF8
1CC100399610289720
ENDCHAR
STARTCHAR guilsinglleft
ENCODING 8249
SWIDTH 322 0
DWIDTH 6 0
BBX 7 10 -1 -1
BITMAP
00000440
00005FC0
0007FF90
04CFFB00
2FFF8000
1FFB0000
08FFC100
008FF800
0005DE00
00000400
ENDCHAR
STARTCHAR guilsinglright
ENCODING 8250
SWIDTH 341 0
DWIDTH 7 0
BBX 7 10 -1 -1
BITMAP
03400000
07FB2000
01EFE300
004EFE20
0004FF80
005EFF80
07FFD510
4FFA1000
5F900000
05000000
ENDCHAR
STARTCHAR fraction
ENCODING 8260
SWIDTH 541 0
DWIDTH 11 0
BBX 11 16 0 -1
BITMAP
000000000640
000000006F90
00000004FF80
0000002EFF50
000000AFF700
000008FF9000
00005FFB0000
0002EFD10000
001DFF400000
01CFF5000000
0AFF80000000
5FFB00000000
AFF200000000
CFE000000000
9FB000000000
031000000000
ENDCHAR
STARTCHAR Euro
ENCODING 8364
SWIDTH 565 0
DWIDTH 11 0
BBX 12 12 -1 0
BITMAP
000000007EA0
0000004DFFF9
00001BFFFFF6
0002DFFFEA40
000CFFFB1000
027FFFC75100
4FFFFFFFFD30
2FFFFFFFDB30
048FF7421000
000DFFFFFFB0
0002CFFFFFF3
0000048ABA50
ENDCHAR
STARTCHAR Delta
ENCODING 8710
SWIDTH 403 0
DWIDTH 8 0
BBX 12 13 -1 -1
BITMAP
0019BDEFFEA1
003FFFFFFFF9
000DEDFF9751
000009FE0000
00000DFA0000
00003FF50000
00009FF10000
0000EFC00000
0006FF600000
146DFFC60000
9FFFFFFF4000
6FFECB970000
042000000000
ENDCHAR
STARTCHAR minus
ENCODING 8722
SWIDTH 548 0
DWIDTH 11 0
BBX 12 4 -1 3
BITMAP
0579ABBCA810
1FFFFFFFFFD1
0CFFFEEDCB81
025200000000
ENDCHAR
STARTCHAR approxequal
ENCODING 8776
SWIDTH 323 0
DWIDTH 6 0
BBX 6 16 0 -1
BITMAP
000250
003ED0
008FF5
00DFF8
01FFFB
04FFF7
08FFF2
0CFFC0
0FFF80
1FFF60
2FFF40
3FFF30
0FFF40
0BFF60
05FE20
002000
ENDCHAR
STARTCHAR fi
ENCODING 64257
SWIDTH 810 0
DWIDTH 16 0
BBX 17 14 -1 -1
BITMAP
000000000120000000
0000027BEFFC12C400
0038DFFFFFFFA8FB00
01FFFFFEB8652DFE00
00DFFF6000001FFF10
002DFE1000004FFB00
012EFB1352008FF700
2EFFFFFFFC00CFF200
4FFFFFFFF900EFF000
0AFFDA742000FFD000
08FF10000000EFD000
0AFB00000000BFE000
05FA000000005FC000
002100000000031000
ENDCHAR
STARTCHAR fl
ENCODING 64258
SWIDTH 1012 0
DWIDTH 20 0
BBX 21 14 -1 -1
BITMAP
0000000001200000000000
0000027BEFFC18D8000000
0038DFFFFFFFACFF500000
01FFFFFEB8654FFF100000
00DFFF6000007FFA000000
002DFE100000DFF5000000
012EFB135203FFD0000000
2EFFFFFFFC08FF80000000
4FFFFFFFF90DFF30000000
0AFFDA74202FFE01343000
08FF1000003FFFDFFFFC40
0AFB0000000EFFFFFFFFB0
05FA00000006FFFDA99A50
0021000000003420000000
ENDCHAR
STARTCHAR .notdef
ENCODING -1
SWIDTH 370 0
DWIDTH 7 0
BBX 1 1 0 0
BITMAP
00
ENDCHAR
ENDFONT
